<svg version="1.1" id="Layer_1" xmlns="http://www.w3.org/2000/svg" xmlns:xlink="http://www.w3.org/1999/xlink" x="0px" y="0px"
	 viewBox="0 0 65.2 77.54" style="enable-background:new 0 0 65.2 77.54;" xml:space="preserve">
<g>
	<path  class="path" fill="rgba(255, 255, 255, 0.5)" stroke="#000000" stroke-width="2px" d="M13.36,19c-1.58,0-2.87,1.29-2.87,2.87c0,1.58,1.29,2.87,2.87,2.87s2.87-1.29,2.87-2.87
		C16.22,20.28,14.94,19,13.36,19z M13.36,23.24c-0.76,0-1.37-0.61-1.37-1.37s0.61-1.37,1.37-1.37s1.37,0.61,1.37,1.37
		C14.72,22.62,14.11,23.24,13.36,23.24z"/>
	<path  class="path" fill="rgba(255, 255, 255, 0.5)" stroke="#000000" stroke-width="2px" d="M20.67,19c-1.58,0-2.87,1.29-2.87,2.87c0,1.58,1.29,2.87,2.87,2.87c1.58,0,2.87-1.29,2.87-2.87
		C23.54,20.28,22.25,19,20.67,19z M20.67,23.24c-0.76,0-1.37-0.61-1.37-1.37s0.61-1.37,1.37-1.37s1.37,0.61,1.37,1.37
		C22.04,22.62,21.42,23.24,20.67,23.24z"/>
	<path class="path" fill="rgba(255, 255, 255, 0.5)" stroke="#000000" stroke-width="2px" d="M27.98,19c-1.58,0-2.87,1.29-2.87,2.87c0,1.58,1.29,2.87,2.87,2.87c1.58,0,2.87-1.29,2.87-2.87
		C30.85,20.28,29.56,19,27.98,19z M27.98,23.24c-0.76,0-1.37-0.61-1.37-1.37s0.61-1.37,1.37-1.37s1.37,0.61,1.37,1.37
		C29.35,22.62,28.74,23.24,27.98,23.24z"/>
	<path class="path" fill="rgba(255, 255, 255, 0.5)" stroke="#000000" stroke-width="2px" d="M20.29,53.41c6.2,0,11.25-5.05,11.25-11.25s-5.05-11.25-11.25-11.25S9.04,35.96,9.04,42.16
		C9.05,48.36,14.09,53.41,20.29,53.41z M14.25,49.79c0.08-1.29,0.97-2.39,2.24-2.7c0.23-0.06,0.44-0.14,0.64-0.25
		c0.15,0.45,0.38,0.93,0.76,1.33c0.6,0.64,1.41,0.96,2.41,0.96s1.81-0.32,2.41-0.96c0.38-0.4,0.61-0.87,0.76-1.33
		c0.2,0.1,0.42,0.19,0.64,0.25c1.27,0.31,2.16,1.41,2.24,2.7c-1.66,1.32-3.76,2.12-6.05,2.12C18.01,51.91,15.91,51.11,14.25,49.79z
		 M17.29,44.12c-0.02,0.09-0.04,0.2-0.08,0.33c-0.49-0.01-0.95-0.09-1.3-0.18c0.34-0.87,0.57-2,0.69-3.37v1.09
		C16.6,42.78,16.86,43.51,17.29,44.12z M18.54,45.21c0.52,0.28,1.1,0.44,1.73,0.44h0.05c0.62,0,1.21-0.16,1.73-0.44
		c0.04,0.12,0.09,0.23,0.15,0.34c-0.03,0.41-0.14,1.11-0.58,1.58c-0.31,0.33-0.74,0.49-1.32,0.49s-1.01-0.16-1.31-0.48
		c-0.44-0.47-0.56-1.18-0.58-1.59C18.45,45.45,18.5,45.33,18.54,45.21z M23.38,44.44c-0.03-0.13-0.06-0.24-0.08-0.33
		c0.43-0.6,0.69-1.34,0.69-2.13V40.9c0.12,1.37,0.36,2.49,0.69,3.37C24.32,44.36,23.87,44.44,23.38,44.44z M23.5,38.51
		c-1.99-0.74-2.38-2.7-2.44-3.79c0.67,0.13,1.29,0.46,1.79,0.96c0.67,0.67,1.03,1.56,1.03,2.51c0,0.3,0,0.59,0.01,0.88L23.5,38.51z
		 M22.49,39.7v2.28c0,1.19-0.97,2.17-2.17,2.17h-0.05c-1.19,0-2.17-0.97-2.17-2.17V39.7c1.04-0.51,1.74-1.3,2.19-2.15
		C20.75,38.41,21.45,39.19,22.49,39.7z M17.09,38.51l-0.39,0.56c0.01-0.28,0.01-0.58,0.01-0.88c0-0.95,0.36-1.84,1.03-2.51
		c0.5-0.5,1.11-0.83,1.79-0.96C19.47,35.81,19.08,37.77,17.09,38.51z M20.29,32.41c5.38,0,9.75,4.37,9.75,9.75
		c0,2.45-0.91,4.68-2.41,6.4c-0.43-1.29-1.43-2.33-2.74-2.8c0.66-0.15,1.11-0.35,1.14-0.36l0.34-1.07c-0.65-1.1-1-3.21-0.99-6.13
		c0-1.35-0.52-2.62-1.47-3.58c-0.94-0.95-2.2-1.47-3.54-1.47h-0.16c-1.34,0-2.59,0.52-3.54,1.47c-0.95,0.95-1.47,2.22-1.47,3.58
		c0.01,2.91-0.33,5.03-0.99,6.13l0.34,1.07c0.03,0.01,0.47,0.21,1.13,0.36c-1.31,0.47-2.31,1.51-2.74,2.8
		c-1.5-1.71-2.41-3.95-2.41-6.4C10.55,36.78,14.92,32.41,20.29,32.41z"/>
	<path class="path" fill="rgba(255, 255, 255, 0.5)" stroke="#000000" stroke-width="2px" d="M29.91,56.4H10.68c-0.41,0-0.75,0.34-0.75,0.75s0.34,0.75,0.75,0.75h19.23c0.41,0,0.75-0.34,0.75-0.75
		C30.66,56.73,30.32,56.4,29.91,56.4z"/>
	<path class="path" fill="rgba(255, 255, 255, 0.5)" stroke="#000000" stroke-width="2px" d="M29.91,60.18H10.68c-0.41,0-0.75,0.34-0.75,0.75s0.34,0.75,0.75,0.75h19.23c0.41,0,0.75-0.34,0.75-0.75
		S30.32,60.18,29.91,60.18z"/>
	<path class="path" fill="rgba(255, 255, 255, 0.5)" stroke="#000000" stroke-width="2px" d="M5.28,72.59h54.71c0.41,0,0.75-0.34,0.75-0.75v-5.3V27.97V15.71c0-0.41-0.34-0.75-0.75-0.75h-6.47v-2.01
		c0-0.41-0.34-0.75-0.75-0.75l0,0l0.04-1.01c0.01-0.2-0.07-0.4-0.21-0.55s-0.34-0.23-0.54-0.23H50.8V8.33
		c0-2.36-1.92-4.28-4.28-4.28s-4.28,1.92-4.28,4.28v2.08h-1.26c-0.2,0-0.4,0.08-0.54,0.23s-0.22,0.35-0.21,0.55l0.04,1.01l0,0
		c-0.41,0-0.75,0.34-0.75,0.75v0.23h-1.3c-0.21,0-0.4,0.08-0.54,0.23s-0.22,0.35-0.21,0.55l0.05,0.99H5.28
		c-0.41,0-0.75,0.34-0.75,0.75v12.26v38.56v5.3C4.53,72.25,4.87,72.59,5.28,72.59z M51.66,54.23l-4.38,6.87v-5.52
		c0.83-0.31,1.43-1.1,1.43-2.04c0-1.2-0.98-2.18-2.18-2.18s-2.18,0.98-2.18,2.18c0,0.94,0.6,1.73,1.43,2.04v5.52l-4.38-6.87
		c2.39-1.78,2.63-3.81,2.54-4.89h5.17C49.03,50.42,49.26,52.45,51.66,54.23z M46.53,54.22c-0.37,0-0.68-0.3-0.68-0.68
		s0.3-0.68,0.68-0.68c0.37,0,0.68,0.3,0.68,0.68S46.9,54.22,46.53,54.22z M41.61,47.84v-0.4h1.32h7.2h1.32v0.4H41.61z M41.07,30.68
		l-0.11-0.34l0.08-0.26L41.07,30.68z M42.92,38.87l-0.97-22.83h9.16l-0.97,22.83C50.14,38.87,42.92,38.87,42.92,38.87z M43.68,40.37
		h2.1v5.56h-2.1V40.37z M47.28,45.94v-5.56h2.1v5.56H47.28z M51.17,14.55h-9.29l-0.04-0.85h9.36L51.17,14.55z M40.46,16.46
		l0.46,10.76h-1.26l-0.54-10.76H40.46z M40.99,28.72l0.02,0.56c-0.09-0.15-0.23-0.26-0.41-0.32c-0.32-0.1-0.66,0.03-0.84,0.29
		l-0.03-0.53C39.73,28.72,40.99,28.72,40.99,28.72z M38.39,31.91c0.01,0.2,0.1,0.39,0.25,0.52c0.14,0.12,0.32,0.19,0.5,0.19
		c0.01,0,0.03,0,0.04,0l1.49-0.08c0.18-0.01,0.34-0.08,0.47-0.2l0.31,7.31c0.02,0.39,0.34,0.7,0.73,0.72v5.56h-1.32
		c-0.41,0-0.75,0.34-0.75,0.75v1.9c0,0.41,0.34,0.75,0.75,0.75h1.59c0.08,0.71,0.01,2.5-2.46,4.05c-0.17,0.11-0.29,0.28-0.33,0.47
		s-0.01,0.4,0.1,0.57l6.15,9.65c0,0,0,0,0.01,0.01c0.03,0.05,0.07,0.09,0.11,0.13c0.01,0.01,0.02,0.02,0.03,0.03
		c0.03,0.03,0.07,0.05,0.1,0.07c0.02,0.01,0.03,0.02,0.05,0.03c0.04,0.02,0.07,0.03,0.11,0.05c0.02,0,0.03,0.01,0.05,0.01
		c0.06,0.01,0.11,0.02,0.17,0.02c0.06,0,0.12-0.01,0.17-0.02c0.02,0,0.03-0.01,0.05-0.01c0.04-0.01,0.08-0.03,0.11-0.05
		c0.02-0.01,0.03-0.02,0.05-0.03c0.04-0.02,0.07-0.05,0.1-0.07c0.01-0.01,0.02-0.02,0.03-0.03c0.04-0.04,0.08-0.08,0.11-0.13
		c0,0,0,0,0.01-0.01l6.15-9.65c0.11-0.17,0.14-0.37,0.1-0.57c-0.04-0.19-0.16-0.36-0.33-0.47c-2.46-1.55-2.54-3.33-2.46-4.05h1.59
		c0.41,0,0.75-0.34,0.75-0.75v-1.9c0-0.41-0.34-0.75-0.75-0.75H50.9v-5.56c0.39-0.01,0.71-0.32,0.73-0.72l0.47-10.93h7.17v37.06
		h-10.9v-0.23c0-0.41-0.34-0.75-0.75-0.75h-1.96c-0.41,0-0.75,0.34-0.75,0.75v0.23H6.03V28.72h32.2L38.39,31.91z M59.24,71.09H6.03
		v-3.8h38.85v0.23c0,0.41,0.34,0.75,0.75,0.75h1.96c0.41,0,0.75-0.34,0.75-0.75v-0.23h10.9C59.24,67.29,59.24,71.09,59.24,71.09z
		 M59.24,27.22h-7.11l0.46-10.76h6.65V27.22z M43.75,8.33c0-1.53,1.25-2.78,2.78-2.78s2.78,1.25,2.78,2.78v2.08h-5.57V8.33H43.75z
		 M41.77,11.91H43h7.07h1.22l-0.01,0.29h-9.49L41.77,11.91z M39.02,14.68h0.51v0.28h-0.5L39.02,14.68z M6.03,16.46h31.58l0.54,10.76
		H6.03V16.46z"/>
</g>
</svg>


