<svg version="1.1" id="Layer_1" xmlns="http://www.w3.org/2000/svg" xmlns:xlink="http://www.w3.org/1999/xlink" x="0px" y="0px"
	 viewBox="0 0 65.2 77.54" style="enable-background:new 0 0 65.2 77.54;" xml:space="preserve">
<g>
	<path class="path" fill="#FFFFFF" stroke="#000000" stroke-width="2px" d="M60.51,71.51l0.75-0.75V26.35l-0.75-0.75h-8.17l0.01-16.84c0-1.03-0.4-2-1.13-2.74
		c-0.73-0.73-1.7-1.13-2.73-1.13h-6.2c-1.03,0-2,0.4-2.73,1.13s-1.13,1.7-1.13,2.74l0.01,16.84h-34l-0.75,0.75v44.41l0.75,0.75
		C4.44,71.51,60.51,71.51,60.51,71.51z M43.94,53.72l-4-7.06c0.36-0.22,0.81-0.36,1.25-0.36c0.49,0,0.98,0.18,1.37,0.5
		c0.42,0.35,1.1,0.35,1.52,0c0.78-0.64,1.95-0.64,2.74,0c0.21,0.17,0.48,0.27,0.76,0.27s0.55-0.1,0.76-0.27
		c0.7-0.58,1.7-0.66,2.46-0.17l-4,7.09H43.94z M46.7,17.8v27.24c-0.4-0.15-0.82-0.23-1.25-0.23c-0.48,0-0.96,0.11-1.4,0.3V17.8
		C44.05,17.8,46.7,17.8,46.7,17.8z M48.2,45.15V17.8h2.64l-0.01,27.19C49.99,44.71,49.03,44.77,48.2,45.15z M50.84,13.87H39.91
		v-0.96h10.93V13.87z M50.84,15.37v0.93H39.92v-0.93C39.92,15.37,50.84,15.37,50.84,15.37z M42.56,17.8v27.28
		c-0.83-0.33-1.78-0.35-2.63-0.05L39.92,17.8H42.56z M38.42,46.77v0.25l6.29,11.11H31.66c-0.41,0-0.75,0.34-0.75,0.75
		s0.34,0.75,0.75,0.75h17.8c0.41,0,0.75-0.34,0.75-0.75s-0.34-0.75-0.75-0.75h-3.42l2.39-4.24l0.13-0.18h-0.03l3.8-6.73v-0.22V30.77
		h3.74v33.08H8.87V30.78h29.55V46.77z M40.61,7.08c0.45-0.45,1.04-0.69,1.67-0.69h6.2c0.63,0,1.23,0.25,1.67,0.69
		c0.45,0.45,0.69,1.04,0.69,1.67v2.65H39.91V8.75C39.91,8.13,40.16,7.53,40.61,7.08z M5.19,27.1h33.23v2.18H8.12l-0.75,0.75v34.58
		l0.75,0.75h48.7l0.75-0.75V30.03l-0.75-0.75h-4.49V27.1h7.42v42.91H5.19V27.1z"/>
	<path class="path" fill="#FFFFFF" stroke="#000000" stroke-width="2px" d="M29,56.57h7.88l0.62-1.17l-7.78-11.66l-1.21-0.05l-3.47,4.34l-4.31-6.93l-1.3,0.04l-7.78,14.32l0.66,1.11H29z
		 M29.04,45.42l6.43,9.64h-6.06l-3.53-5.69L29.04,45.42z M20.14,42.98l7.51,12.08H13.58L20.14,42.98z"/>
</g>
</svg>
