<svg version="1.1" id="Layer_1" xmlns="http://www.w3.org/2000/svg" xmlns:xlink="http://www.w3.org/1999/xlink" x="0px" y="0px"
	 viewBox="0 0 233.2 92.54" style="enable-background:new 0 0 233.2 92.54;" xml:space="preserve">
<path class="path" fill="#F7941D" stroke="#F7941D" stroke-width="0.75" d="M224.79,39.15c-1.45-2.18-4.38-4.08-8.13-5.7c-5.34-2.92-11.95-5.12-19.08-6.1c-1.2-0.16-1.45,0.39-0.81,0.77
	c-1.68-0.28-3.35-0.52-4.95-0.72c-37.81-4.78-75.57-4.39-106.75-1.3c-16.1,1.6-31.09,4.09-44.59,7.44
	C28.02,36.63,14,40.21,8.78,46.59c-4.61,5.63,1.92,13.22,18.41,18.04c17.37,5.08,37.74,6.41,54.4,7.52
	c30.72,2.03,59.64,1.26,84.87-2.17c-8.18,1.7-16.91,3.05-26.14,4.01c-13.88,1.45-28.86,2.06-44.61,1.74
	c-17.79-0.36-38.52-1.26-57.92-6.16C17.02,64.33,2.01,54.49,6.57,46.44c4.02-7.1,17.83-11.01,30.4-14.45
	c24.97-6.83,54.37-11.15,86.79-12.75c7.83-0.39,15.83-0.6,23.97-0.68c1.46-0.01,0.13-1.15-1.31-1.13
	c-38.31,0.37-73.27,4.18-102.75,11.31c-20.83,5.04-63.58,16.73-25.91,34.88c16.72,8.06,38.07,10.94,56.63,12.25
	c18.04,1.28,35.41,1.42,51.57,0.51c22.13-1.24,42.04-4.46,58.69-9.45C205.26,62.8,240.29,53.93,224.79,39.15z M222.83,51.46
	c-5.04,4.85-14.78,8.19-25.05,10.89c2.7-1.09,5.29-2.24,7.74-3.44c5.03-2.47,9.52-5.18,13.41-8.1c2.62-1.97,5.44-4.08,6.46-6.6
	C226.07,46.9,225.03,49.35,222.83,51.46z M101.1,71.96c-16.38-0.43-33.61-1.63-51.03-3.87c-17.47-2.25-41.6-8.33-40.4-17.61
	c0.95-7.32,15.26-11.15,26.67-14.31c11.82-3.27,24.9-5.84,39-7.67c27.77-3.59,59.41-4.35,92.98-2.12
	c12.15,0.81,32.08,1.61,45.02,6.7c3.34,1.62,6.15,3.49,8.24,5.43c0.45,0.42,0.85,0.84,1.22,1.25c1.52,3.26-1.23,6.17-3.9,8.42
	c-3.14,2.64-6.84,5.09-10.91,7.37c-7.1,3.98-15.49,7.41-24.96,10.27C159.42,70.66,131.41,72.76,101.1,71.96z"/>
</svg>
