<?xml version="1.0" encoding="utf-8"?>
<!-- Generator: Adobe Illustrator 23.0.1, SVG Export Plug-In . SVG Version: 6.00 Build 0)  -->
<svg version="1.1" id="Layer_1" xmlns="http://www.w3.org/2000/svg" xmlns:xlink="http://www.w3.org/1999/xlink" x="0px" y="0px"
	 viewBox="0 0 65.2 77.54" style="enable-background:new 0 0 65.2 77.54;" xml:space="preserve">
<style type="text/css">
	.st0{fill:#FFFFFF;}
</style>
<g>
	<path class="st0" d="M22.86,55.2h21.5c1.89,0,3.42-1.54,3.42-3.42v-8.72c0-1.89-1.54-3.42-3.42-3.42h-21.5
		c-1.89,0-3.42,1.54-3.42,3.42v8.72C19.43,53.67,20.97,55.2,22.86,55.2z M20.89,43.06c0-1.08,0.88-1.96,1.96-1.96h21.5
		c1.08,0,1.96,0.88,1.96,1.96v8.72c0,1.08-0.88,1.96-1.96,1.96h-21.5c-1.08,0-1.96-0.88-1.96-1.96V43.06z"/>
	<path class="st0" d="M6.77,53.03l1.17,0.7c0.35,0.21,0.75,0.32,1.15,0.32c0.28,0,0.55-0.06,0.8-0.15v7.2H8.71v5.87h1.18v7.05h7.78
		v-7.05h1.18V61.1h-1.18v-1.2h28.86v1.19h-1.18v5.87h1.18v7.05h7.78v-7.05h1.18v-5.87H54.3v-7.18c0.23,0.08,0.48,0.14,0.75,0.14
		c0.4,0,0.8-0.11,1.15-0.32l1.17-0.7c2.34-1.39,3.79-3.95,3.79-6.67V35.22c0-1.78-1.45-3.23-3.23-3.23H54.3V3.34h-7.78v12.93H44.4
		v-2.01c0-4.16-3.38-7.54-7.54-7.54h-8.72c-4.16,0-7.54,3.38-7.54,7.54v2.01h-2.95V3.34H9.88v12.93v9.18V32H6.2
		c-1.78,0-3.23,1.45-3.23,3.23v11.14C2.98,49.08,4.43,51.64,6.77,53.03z M16.2,65.5h-4.86v-2.95h4.86V65.5z M16.2,72.55h-4.86v-5.6
		h4.86V72.55z M16.2,61.09h-4.86v-3.38c1.13,1.34,2.82,2.19,4.71,2.19h0.15C16.2,59.9,16.2,61.09,16.2,61.09z M52.84,65.5h-4.86
		v-2.95h4.86V65.5z M52.84,72.55h-4.86v-5.6h4.86V72.55z M47.98,61.09V59.9h0.1c1.91,0,3.62-0.88,4.76-2.25v3.43L47.98,61.09
		L47.98,61.09z M57.93,33.45c0.98,0,1.77,0.79,1.77,1.77v11.14c0,2.21-1.18,4.29-3.08,5.42l-1.17,0.7c-0.13,0.08-0.26,0.11-0.4,0.11
		c-0.31,0-0.63-0.2-0.75-0.53V33.45H57.93z M47.98,4.8h4.86v11.47h-4.86V4.8z M40.59,33.3h2.36v2.66h-2.36V33.3z M40.59,31.85V28.9
		h2.36v2.95C42.95,31.85,40.59,31.85,40.59,31.85z M39.13,27.44v4.41H25.6v-4.41h-5.28v4.41h-2.58c-3.53,0-6.4-2.87-6.4-6.4v-7.72
		h41.45v7.72c0,3.53-2.87,6.4-6.4,6.4H44.4v-4.41H39.13z M21.77,33.3h2.36v2.66h-2.36V33.3z M21.77,31.85V28.9h2.36v2.95
		C24.13,31.85,21.77,31.85,21.77,31.85z M39.71,16.27H25.3v-1.82c0-1.68,1.36-3.04,3.04-3.04h8.33c1.68,0,3.04,1.36,3.04,3.04V16.27
		z M22.07,14.26c0-3.35,2.73-6.08,6.08-6.08h8.72c3.35,0,6.08,2.73,6.08,6.08v2.01h-1.77v-1.82c0-2.48-2.02-4.5-4.5-4.5h-8.33
		c-2.48,0-4.5,2.02-4.5,4.5v1.82h-1.77L22.07,14.26L22.07,14.26z M11.34,4.8h4.86v11.47h-4.86V4.8z M11.34,29.99
		c1.43,2,3.76,3.31,6.4,3.31h2.58v4.12h5.28V33.3h13.53v4.12h5.28V33.3h1.99c2.67,0,5.03-1.34,6.45-3.38v2.07H52.8v0.58v19.22v1.94
		c0,2.6-2.11,4.71-4.71,4.71H16.05c-2.6,0-4.71-2.11-4.71-4.71v-1.94V32.58V32C11.34,32,11.34,29.99,11.34,29.99z M4.43,35.22
		c0-0.98,0.79-1.77,1.77-1.77h3.68v18.34c0,0.49-0.41,0.8-0.8,0.8c-0.14,0-0.28-0.04-0.4-0.11l-1.17-0.7
		c-1.9-1.13-3.08-3.21-3.08-5.42C4.43,46.36,4.43,35.22,4.43,35.22z"/>
	<path class="st0" d="M25.53,52.19c0.61,0,1.17-0.3,1.5-0.8c0.34-0.5,0.4-1.14,0.17-1.7l-0.94-2.27v-1.13h17.22v-1.46H23.89v1.46
		h0.91v1.13l-0.94,2.27c-0.23,0.56-0.17,1.19,0.17,1.7C24.36,51.89,24.92,52.19,25.53,52.19z M25.82,50.57
		c-0.04,0.06-0.13,0.16-0.29,0.16c-0.16,0-0.25-0.1-0.29-0.16c-0.04-0.06-0.09-0.18-0.03-0.33l0.32-0.78l0.32,0.78
		C25.91,50.4,25.86,50.52,25.82,50.57z"/>
</g>
</svg>
