<?xml version="1.0" encoding="utf-8"?>
<!-- Generator: Adobe Illustrator 23.0.1, SVG Export Plug-In . SVG Version: 6.00 Build 0)  -->
<svg version="1.1" id="Layer_1" xmlns="http://www.w3.org/2000/svg" xmlns:xlink="http://www.w3.org/1999/xlink" x="0px" y="0px"
	 viewBox="0 0 79.2 92.5" style="enable-background:new 0 0 79.2 92.5;" xml:space="preserve">
<style type="text/css">
	.st0{fill:#FFFFFF;}
</style>
<g>
	<path class="st0" d="M57.5,65.8l4.5,7.9h0l0.1,0.2l3.5,6.3l8.1-14.3v-0.3l0-57.3c0-1.2-0.5-2.3-1.3-3.2c-0.8-0.8-2-1.3-3.2-1.3H62
		c-1.2,0-2.3,0.5-3.2,1.3c-0.8,0.8-1.3,2-1.3,3.2l0,57.3V65.8z M68.9,63.6V18.8H72l0,44.8C71,63.2,69.8,63.2,68.9,63.6z M59.2,13.1
		H72v1.2H59.2V13.1z M72,15.9v1.1H59.2v-1.1H72z M67.2,63.6c-0.5-0.2-1.1-0.4-1.7-0.4c-0.5,0-1,0.1-1.5,0.3V18.8h3.1L67.2,63.6z
		 M59.2,63.5l0-44.7h3.1v44.9C61.3,63.2,60.2,63.2,59.2,63.5z M72,8.2v3.1H59.2V8.2c0-0.8,0.3-1.4,0.8-2c0.5-0.5,1.2-0.8,2-0.8h7.2
		c0.8,0,1.4,0.3,2,0.8C71.7,6.8,72,7.5,72,8.2z M63.9,73.7l-4.7-8.3c0.9-0.6,2.1-0.5,2.9,0.2c0.2,0.2,0.5,0.3,0.9,0.3
		s0.6-0.1,0.9-0.3c0.9-0.8,2.3-0.8,3.2,0c0.5,0.4,1.3,0.4,1.8,0c0.5-0.4,1-0.6,1.6-0.6c0.5,0,1.1,0.2,1.5,0.4l-4.7,8.3L63.9,73.7
		L63.9,73.7z"/>
	<path class="st0" d="M45.3,88.3v-15h9.3V8.6H23h-8.6h-0.5c-4.9,0-8.9,4-8.9,8.9v46.9c0,4.9,4,8.9,8.9,8.9h0.5H23h12.8v15l4.8-7
		L45.3,88.3z M37.4,73.4h6.2v9.5l-3.1-4.5l-3.1,4.5L37.4,73.4L37.4,73.4z M14.3,10.3v61.4h-0.5c-4,0-7.2-3.2-7.2-7.2v-47
		c0-4,3.2-7.2,7.2-7.2H14.3z M21.3,10.3v61.4H16V10.3H21.3z M23,10.3h24.6v61.4H23V10.3z M52.9,71.7h-3.7V10.3h3.7V71.7z"/>
</g>
</svg>
