<?xml version="1.0" encoding="utf-8"?>
<!-- Generator: Adobe Illustrator 23.0.1, SVG Export Plug-In . SVG Version: 6.00 Build 0)  -->
<svg version="1.1" id="Layer_1" xmlns="http://www.w3.org/2000/svg" xmlns:xlink="http://www.w3.org/1999/xlink" x="0px" y="0px"
	 viewBox="0 0 65.2 77.54" style="enable-background:new 0 0 65.2 77.54;" xml:space="preserve">
<style type="text/css">
	.st0{fill:#FFFFFF;}
</style>
<g>
	<path class="st0" d="M59.64,5.51c-1.59,0-2.92,1.11-3.26,2.6H37.17V4.09c0-0.41-0.34-0.75-0.75-0.75h-9.54
		c-0.41,0-0.75,0.34-0.75,0.75v4.02H6.92c-0.34-1.48-1.67-2.6-3.26-2.6c-1.84,0-3.35,1.5-3.35,3.35c0,1.84,1.5,3.35,3.35,3.35
		c1.59,0,2.92-1.11,3.26-2.6H23.2C14.79,12.69,8.65,20.2,7.43,29.25c-1.6,0.25-2.82,1.63-2.82,3.3c0,1.67,1.23,3.05,2.83,3.3
		c0.99,7.3,5.31,13.85,11.67,17.66v1.53h-1.62c-0.41,0-0.75,0.34-0.75,0.75v4.29c0,0.41,0.34,0.75,0.75,0.75h1.62v1.89h-1.62
		c-0.41,0-0.75,0.34-0.75,0.75v4.29c0,0.41,0.34,0.75,0.75,0.75h8.16c0.37,2.98,2.92,5.3,6,5.3c3.08,0,5.63-2.32,6-5.3h8.16
		c0.41,0,0.75-0.34,0.75-0.75v-4.29c0-0.41-0.34-0.75-0.75-0.75h-1.62v-1.89h1.62c0.41,0,0.75-0.34,0.75-0.75v-4.29
		c0-0.41-0.34-0.75-0.75-0.75h-1.62v-1.53c6.36-3.81,10.68-10.36,11.67-17.66c1.6-0.25,2.83-1.63,2.83-3.3
		c0-1.67-1.22-3.05-2.82-3.3C54.65,20.21,48.5,12.69,40.09,9.6h16.28c0.34,1.48,1.67,2.6,3.26,2.6c1.84,0,3.35-1.5,3.35-3.35
		C62.98,7.01,61.48,5.51,59.64,5.51z M27.63,4.83h8.04v8.04h-8.04C27.63,12.87,27.63,4.83,27.63,4.83z M3.67,10.7
		c-1.02,0-1.85-0.83-1.85-1.85S2.65,7,3.67,7s1.85,0.83,1.85,1.85C5.51,9.87,4.68,10.7,3.67,10.7z M6.11,32.55
		c0-1.02,0.83-1.85,1.85-1.85s1.85,0.83,1.85,1.85c0,1.02-0.83,1.85-1.85,1.85C6.94,34.39,6.11,33.57,6.11,32.55z M31.65,72.31
		c-2.25,0-4.13-1.65-4.49-3.8h8.97C35.78,70.66,33.91,72.31,31.65,72.31z M45.06,67.01H18.24v-2.79h26.82
		C45.06,64.22,45.06,67.01,45.06,67.01z M42.69,62.72H20.61v-1.89h22.08V62.72z M45.06,59.33H18.24v-2.79h26.82
		C45.06,56.54,45.06,59.33,45.06,59.33z M31.65,31.72c0.89,0,1.62,0.73,1.62,1.62s-0.73,1.62-1.62,1.62s-1.62-0.73-1.62-1.62
		C30.03,32.45,30.76,31.72,31.65,31.72z M30.9,30.31c-1.36,0.34-2.37,1.56-2.37,3.03c0,1.72,1.4,3.12,3.12,3.12
		c1.72,0,3.12-1.4,3.12-3.12c0-1.46-1.01-2.69-2.37-3.03V19.1l8.43,13.23c-4.63,3.23-4.58,7.01-4.34,8.5h-9.68
		c0.24-1.49,0.28-5.27-4.34-8.5L30.9,19.1C30.9,19.1,30.9,30.31,30.9,30.31z M40.32,42.33v1.66h-2.69H25.67h-2.69v-1.66H40.32z
		 M36.88,55.05H32.4v-9.56h4.48V55.05z M30.9,45.49v9.56h-4.48v-9.56C26.42,45.49,30.9,45.49,30.9,45.49z M57.19,32.55
		c0,1.02-0.83,1.85-1.85,1.85c-1.02,0-1.85-0.83-1.85-1.85c0-1.02,0.83-1.85,1.85-1.85C56.37,30.7,57.19,31.53,57.19,32.55z
		 M54.37,29.35C53,29.77,52,31.04,52,32.55c0,1.5,1,2.78,2.36,3.2c-0.98,6.95-5.16,13.16-11.3,16.69c-0.23,0.13-0.38,0.38-0.38,0.65
		v1.96h-4.31v-9.56h2.69c0.41,0,0.75-0.34,0.75-0.75v-3.16c0-0.41-0.34-0.75-0.75-0.75H38c-0.19-0.86-0.67-4.55,4.25-7.64
		c0.17-0.11,0.29-0.28,0.33-0.47c0.04-0.19,0.01-0.4-0.1-0.57l-10.2-16.03c0,0,0,0-0.01-0.01c-0.13-0.2-0.36-0.34-0.63-0.34
		c-0.26,0-0.49,0.14-0.63,0.34c0,0,0,0-0.01,0.01L20.81,32.15c-0.11,0.17-0.14,0.37-0.1,0.57c0.04,0.19,0.16,0.36,0.33,0.47
		c4.91,3.09,4.44,6.78,4.25,7.64h-3.06c-0.41,0-0.75,0.34-0.75,0.75v3.16c0,0.41,0.34,0.75,0.75,0.75h2.69v9.56h-4.31v-1.96
		c0-0.27-0.14-0.52-0.38-0.65c-6.14-3.53-10.32-9.74-11.3-16.69c1.37-0.42,2.36-1.69,2.36-3.2c0-1.51-1-2.78-2.37-3.2
		c1.29-9.29,8.11-16.84,17.2-19.08v3.35c0,0.41,0.34,0.75,0.75,0.75h9.54c0.41,0,0.75-0.34,0.75-0.75v-3.35
		C46.25,12.51,53.08,20.07,54.37,29.35z M59.64,10.7c-1.02,0-1.85-0.83-1.85-1.85S58.62,7,59.64,7c1.02,0,1.85,0.83,1.85,1.85
		C61.48,9.87,60.65,10.7,59.64,10.7z"/>
</g>
</svg>
