<svg version="1.1" id="Layer_1" xmlns="http://www.w3.org/2000/svg" xmlns:xlink="http://www.w3.org/1999/xlink" x="0px" y="0px"
	 viewBox="0 0 65.2 77.54" style="enable-background:new 0 0 65.2 77.54;" xml:space="preserve">
<g>
	<path class="path" fill="#FFFFFF" stroke="#000000" stroke-width="2px" d="M17.6,41.51v26.75v0.01c0,0.01,0,0.02,0,0.03c0,0.06,0.02,0.12,0.03,0.18c0,0.01,0,0.02,0,0.02l0.01,0.01
		c0.02,0.06,0.06,0.12,0.1,0.18c0.01,0.01,0.02,0.02,0.03,0.03c0.04,0.05,0.08,0.09,0.13,0.13c0.01,0,0.01,0.01,0.02,0.02
		c0.05,0.04,0.12,0.07,0.18,0.09c0.01,0.01,0.03,0.01,0.04,0.01c0.07,0.02,0.13,0.03,0.21,0.03h44.22h0.01
		c0.41,0,0.75-0.34,0.75-0.75c0-0.03-0.01-0.05-0.01-0.08V41.51l0,0l0,0c0-0.07-0.01-0.14-0.03-0.21c0-0.01,0-0.02,0-0.02
		c0-0.01-0.01-0.01-0.01-0.02c-0.02-0.07-0.05-0.13-0.09-0.18c-0.01-0.01-0.01-0.02-0.02-0.03c-0.04-0.05-0.08-0.09-0.13-0.13
		c-0.01-0.01-0.01-0.01-0.02-0.02c-0.06-0.04-0.12-0.07-0.18-0.09c-0.01,0-0.03-0.01-0.04-0.01c-0.07-0.02-0.14-0.03-0.21-0.03
		H18.35c-0.07,0-0.14,0.01-0.21,0.03c-0.01,0-0.03,0.01-0.04,0.01c-0.06,0.02-0.13,0.05-0.18,0.09c-0.01,0.01-0.01,0.01-0.02,0.02
		c-0.05,0.04-0.09,0.08-0.13,0.13c-0.01,0.01-0.02,0.02-0.02,0.03c-0.04,0.06-0.07,0.12-0.09,0.18c0,0.01-0.01,0.01-0.01,0.02
		c0,0.01,0,0.02,0,0.02C17.61,41.37,17.6,41.44,17.6,41.51L17.6,41.51L17.6,41.51z M19.1,43l15.37,11.4L19.1,66.7V43z M20.48,67.51
		l15.23-12.18L40,58.51c0.13,0.1,0.29,0.15,0.45,0.15s0.31-0.05,0.45-0.15l4.29-3.18l15.23,12.18H20.48z M61.81,66.7L46.44,54.4
		L61.81,43V66.7z M60.29,42.26L44.77,53.78l0,0l-4.31,3.2l-4.31-3.2l0,0L20.62,42.26H60.29z"/>
	<path class="path" fill="#FFFFFF" stroke="#000000" stroke-width="2px" d="M51.2,25.77c2.52,0,4.57-2.05,4.57-4.57s-2.05-4.57-4.57-4.57s-4.57,2.05-4.57,4.57
		C46.62,23.72,48.67,25.77,51.2,25.77z M51.2,18.12c1.69,0,3.07,1.38,3.07,3.07s-1.38,3.07-3.07,3.07s-3.07-1.38-3.07-3.07
		C48.12,19.5,49.5,18.12,51.2,18.12z"/>
	<path class="path" fill="#FFFFFF" stroke="#000000" stroke-width="2px" d="M51.2,22.9c0.94,0,1.71-0.77,1.71-1.71s-0.77-1.71-1.71-1.71s-1.71,0.77-1.71,1.71
		C49.49,22.14,50.25,22.9,51.2,22.9z M51.2,20.99c0.11,0,0.21,0.09,0.21,0.21s-0.09,0.21-0.21,0.21c-0.11,0-0.21-0.09-0.21-0.21
		S51.08,20.99,51.2,20.99z"/>
	<path class="path" fill="#FFFFFF" stroke="#000000" stroke-width="2px" d="M18.35,34.61h3.28H45.1c0.41,0,0.75-0.34,0.75-0.75v-0.88c1.67,0.76,3.5,1.16,5.34,1.16
		c7.13,0,12.93-5.8,12.93-12.93S58.32,8.28,51.19,8.28c-1.84,0-3.67,0.4-5.34,1.15V8.55c0-0.41-0.34-0.75-0.75-0.75H21.63h-3.28
		c-0.41,0-0.75,0.34-0.75,0.75v25.32C17.6,34.27,17.93,34.61,18.35,34.61z M51.2,9.76c6.3,0,11.43,5.13,11.43,11.43
		S57.5,32.63,51.2,32.63c-1.86,0-3.71-0.46-5.34-1.33V11.09C47.49,10.22,49.33,9.76,51.2,9.76z M44.35,33.11H22.38V9.28h21.97V33.11
		z M19.1,9.28h1.78V33.1H19.1V9.28z"/>
	<path class="path" fill="#FFFFFF" stroke="#000000" stroke-width="2px" d="M29.79,22.7l-1.11,3.42c-0.1,0.31,0.01,0.65,0.27,0.84s0.62,0.19,0.88,0l2.91-2.12l2.91,2.12
		c0.13,0.1,0.29,0.14,0.44,0.14c0.15,0,0.31-0.05,0.44-0.14c0.26-0.19,0.37-0.53,0.27-0.84l-1.11-3.42l2.91-2.12
		c0.26-0.19,0.37-0.53,0.27-0.84s-0.39-0.52-0.71-0.52h-3.6l-1.11-3.42c-0.1-0.31-0.39-0.52-0.71-0.52s-0.61,0.21-0.71,0.52
		l-1.11,3.42h-3.6c-0.32,0-0.61,0.21-0.71,0.52c-0.1,0.31,0.01,0.65,0.27,0.84L29.79,22.7z M31.46,20.73c0.32,0,0.61-0.21,0.71-0.52
		l0.57-1.75l0.57,1.75c0.1,0.31,0.39,0.52,0.71,0.52h1.84l-1.49,1.08C34.11,22,34,22.34,34.1,22.65l0.57,1.75l-1.49-1.08
		c-0.26-0.19-0.62-0.19-0.88,0l-1.49,1.08l0.57-1.75c0.1-0.31-0.01-0.65-0.27-0.84l-1.49-1.08H31.46z"/>
	<path class="path" fill="#FFFFFF" stroke="#000000" stroke-width="2px" d="M1.29,57.56c0.01,0.04,0.02,0.07,0.04,0.11c0,0.01,0,0.01,0.01,0.02L6.7,68.62c0.13,0.26,0.39,0.42,0.67,0.42
		c0.29,0,0.55-0.16,0.67-0.42l5.37-10.94c0-0.01,0-0.01,0.01-0.02c0.02-0.03,0.03-0.07,0.04-0.11c0-0.01,0.01-0.03,0.01-0.04
		c0.01-0.05,0.02-0.11,0.02-0.16V11.72c0-2.42-1.97-4.38-4.38-4.38H5.64c-2.42,0-4.38,1.97-4.38,4.38v45.63
		c0,0.06,0.01,0.11,0.02,0.16C1.28,57.53,1.28,57.54,1.29,57.56z M3.21,58.1h8.33l-3.38,6.88H6.59L3.21,58.1z M6.35,56.6V20.2h2.04
		v36.4C8.39,56.6,6.35,56.6,6.35,56.6z M4.85,56.6h-2.1V20.2h2.1V56.6z M9.89,56.6V20.2h2.1v36.4C11.99,56.6,9.89,56.6,9.89,56.6z
		 M11.99,18.7H2.75v-2.78h9.23v2.78H11.99z M7.32,66.49h0.1l-0.05,0.1L7.32,66.49z M5.64,8.84h3.47c1.59,0,2.88,1.29,2.88,2.88v2.7
		H2.75v-2.7C2.75,10.13,4.05,8.84,5.64,8.84z"/>
</g>
</svg>
