<svg version="1.1" id="Layer_1" xmlns="http://www.w3.org/2000/svg" xmlns:xlink="http://www.w3.org/1999/xlink" x="0px" y="0px"
	 viewBox="0 0 65.2 77.54" style="enable-background:new 0 0 65.2 77.54;" xml:space="preserve">
<g>
	<path class="path" fill="rgba(255, 255, 255, 0.5)" stroke="#000000" stroke-width="2px" d="M39.59,60.16v-2.74h22.9V42.95H57.2c-0.32-10.6-7.46-20.02-17.6-23.16V7.46c0-1.09-0.43-2.12-1.2-2.9
		c-0.77-0.77-1.8-1.2-2.9-1.2h-6.65c-1.09,0-2.12,0.43-2.9,1.2c-0.77,0.77-1.2,1.8-1.2,2.9v12.33C14.61,22.94,7.47,32.36,7.15,42.95
		H1.86v14.47h22.9v2.74v0.25l7.41,13.09l3.23-5.72l0.08-0.1h-0.02l4.12-7.3v-0.22H39.59z M38.09,58.32
		c-0.93-0.33-2.01-0.26-2.93,0.18v-1.08h2.93V58.32z M30.7,57.42h2.96v0.97c-0.95-0.36-2.03-0.34-2.96,0.07V57.42z M40.69,21.76
		l-1.09,2.57v-2.96C39.97,21.49,40.33,21.62,40.69,21.76z M24.76,42.95h-4.61c0.21-3.46,1.89-6.62,4.61-8.75V42.95z M26.26,42.95
		l-0.01-25.84h2.95v25.84H26.26z M38.1,13.01H26.25v-1.14H38.1V13.01z M38.1,14.51v1.11H26.25v-1.11H38.1z M30.7,17.11h2.95v25.84
		H30.7V17.11z M35.15,42.95V17.11h2.95l-0.01,25.84H35.15z M39.59,34.21c2.72,2.12,4.4,5.29,4.61,8.74h-4.61V34.21z M27.01,5.62
		c0.49-0.49,1.14-0.76,1.84-0.76h6.65c0.69,0,1.35,0.27,1.84,0.76s0.76,1.14,0.76,1.84v2.91H26.25V7.46
		C26.25,6.77,26.52,6.11,27.01,5.62z M24.75,23.31l-0.69-1.7c0.23-0.08,0.45-0.16,0.69-0.24V23.31z M3.36,44.45h5.27V43.7
		c0-1.36,0.12-2.7,0.35-4.01l2.61,0.54l0.3-1.47l-2.6-0.54c0.25-1.03,0.57-2.04,0.95-3.02l4.95,2.1l0.59-1.38l-4.94-2.1
		c0.4-0.86,0.85-1.69,1.35-2.5l2.2,1.46l0.83-1.25l-2.2-1.46c0.61-0.86,1.28-1.68,2-2.45l3.79,3.79l1.06-1.06l-3.8-3.8
		c0.79-0.75,1.64-1.45,2.53-2.08l1.46,2.21l1.25-0.83l-1.46-2.22c0.9-0.55,1.83-1.05,2.8-1.48l2.02,5l0.06-0.03v5.23
		c-3.84,2.52-6.13,6.73-6.13,11.34v0.75h27.1V43.7c0-4.59-2.29-8.82-6.13-11.34v-5.21l0.37,0.16l2.11-4.96
		c0.87,0.4,1.7,0.86,2.5,1.36l-1.47,2.22l1.25,0.83l1.47-2.21c0.86,0.62,1.68,1.29,2.44,2.02l-3.79,3.79l1.06,1.06l3.79-3.79
		c0.75,0.8,1.43,1.65,2.06,2.54l-2.2,1.45l0.82,1.25l2.2-1.45c0.55,0.9,1.05,1.84,1.48,2.8l-4.97,2.01l0.56,1.39l4.98-2.01
		c0.33,0.89,0.6,1.8,0.82,2.72l-2.6,0.52l0.3,1.47l2.61-0.53c0.22,1.28,0.33,2.58,0.33,3.91v0.75h5.27v11.47h-1.63v-2.55h-1.5v2.55
		h-2.29v-5.4h-1.5v5.4h-2.29v-2.55h-1.5v2.55h-2.29v-5.4h-1.5v5.4h-2.29v-2.55h-1.5v2.55H40.4v-5.4h-1.5v5.4h-2.29v-2.55h-1.5v2.55
		h-2.29v-5.4h-1.5v5.4h-2.29v-2.55h-1.5v2.55h-2.29v-5.4h-1.5v5.4h-2.29v-2.55h-1.5v2.55h-2.29v-5.4h-1.5v5.4h-2.29v-2.55h-1.5v2.55
		h-2.29v-5.4h-1.5v5.4h-2.3v-2.55h-1.5v2.55H3.36V44.45z M29.2,57.42v1c-0.92-0.39-1.99-0.41-2.93-0.07v-0.94h2.93V57.42z
		 M30.6,67.68l-4.33-7.65c0.4-0.26,0.92-0.42,1.42-0.42c0.54,0,1.07,0.19,1.5,0.55c0.45,0.37,1.11,0.37,1.57,0
		c0.86-0.7,2.15-0.7,3.01,0c0.23,0.19,0.5,0.28,0.78,0.28s0.56-0.09,0.78-0.28c0.79-0.64,1.91-0.72,2.76-0.16l-4.34,7.69H30.6V67.68
		z"/>
	<polygon class="path" fill="rgba(255, 255, 255, 0.5)" stroke="#000000" stroke-width="2px" points="5.67,29.74 1.52,27.57 0.68,28.81 4.83,30.98 	"/>
	<rect x="12.3" y="9.94" transform="matrix(0.8275 -0.5615 0.5615 0.8275 -5.4203 9.685)" class="st0" width="1.5" height="7.44"/>
	<polygon class="path" fill="rgba(255, 255, 255, 0.5)" stroke="#000000" stroke-width="2px" points="59.52,30.98 63.67,28.81 62.83,27.57 58.68,29.74 	"/>
	
		<rect x="47.58" y="12.91" transform="matrix(0.5613 -0.8276 0.8276 0.5613 11.2001 48.4465)" class="st0" width="7.44" height="1.5"/>
</g>
</svg>
