
<svg version="1.0" xmlns="http://www.w3.org/2000/svg"
 width="824.000000pt" height="319.000000pt" viewBox="0 0 824.000000 319.000000"
 preserveAspectRatio="xMidYMid meet">
<metadata>
Created by potrace 1.15, written by Peter Selinger 2001-2017
</metadata>
<g transform="translate(0.000000,319.000000) scale(0.100000,-0.100000)"
 stroke="none">
<path d="M770 1800 l0 -590 185 0 c130 0 209 5 263 16 215 44 390 201 454 409
32 101 31 244 -1 343 -62 190 -228 347 -417 396 -47 12 -113 16 -273 16 l-211
0 0 -590z m414 246 c49 -21 112 -81 136 -131 24 -50 29 -150 10 -200 -32 -84
-108 -150 -191 -165 l-39 -7 0 258 0 259 25 0 c14 0 41 -6 59 -14z"/>
<path d="M1762 1958 c3 -417 4 -435 25 -491 62 -165 173 -235 383 -244 265
-11 428 83 490 285 19 59 20 94 20 473 l0 409 -165 0 -165 0 0 -376 c0 -412
-1 -423 -59 -457 -34 -20 -99 -22 -136 -5 -15 7 -35 29 -46 50 -18 35 -19 62
-19 413 l0 375 -165 0 -166 0 3 -432z"/>
<path d="M3208 2375 c-210 -53 -397 -242 -439 -444 -19 -91 -7 -252 25 -336
130 -342 563 -488 885 -298 75 45 185 158 224 230 38 70 67 192 67 277 -1 242
-156 463 -388 553 -57 22 -86 27 -192 29 -85 2 -143 -1 -182 -11z m247 -329
c57 -24 100 -63 129 -116 95 -175 -24 -384 -219 -383 -70 0 -117 18 -170 64
-136 120 -104 349 60 425 59 28 147 32 200 10z"/>
<path d="M4313 1063 l-33 -4 0 -215 0 -214 78 0 c149 0 236 46 268 142 37 113
-3 230 -93 270 -45 20 -156 31 -220 21z m186 -61 c52 -26 74 -63 79 -131 8
-113 -46 -179 -160 -196 -90 -14 -88 -17 -88 176 l0 169 68 0 c44 0 79 -6 101
-18z"/>
<path d="M4785 938 c-72 -40 -106 -119 -85 -199 20 -76 66 -109 152 -109 72 0
98 9 98 31 0 17 -6 18 -58 13 -85 -9 -142 25 -142 85 0 20 5 21 110 21 l110 0
0 39 c0 44 -33 99 -70 118 -31 16 -88 16 -115 1z"/>
<path d="M5085 936 c-29 -13 -55 -51 -55 -81 0 -23 42 -64 90 -88 48 -23 63
-55 39 -83 -12 -15 -64 -16 -109 -3 -9 2 -16 -4 -18 -18 -3 -18 3 -23 33 -29
90 -17 165 21 165 84 0 41 -26 70 -86 97 -45 20 -54 28 -54 50 0 35 38 52 84
38 30 -9 35 -8 39 9 10 35 -69 50 -128 24z"/>
<path d="M5521 932 c-54 -27 -75 -63 -79 -135 -3 -69 15 -112 63 -143 36 -24
100 -22 136 5 l29 22 0 -40 c0 -59 -35 -95 -91 -96 -24 0 -59 4 -77 9 -31 7
-33 6 -30 -15 5 -40 116 -53 177 -21 70 35 76 53 79 248 l4 174 -26 0 c-20 0
-26 -5 -26 -21 0 -19 -1 -19 -17 -4 -37 38 -90 44 -142 17z m127 -54 c18 -18
22 -32 22 -85 0 -55 -4 -68 -25 -88 -28 -29 -79 -33 -112 -10 -13 9 -27 34
-33 55 -31 114 69 201 148 128z"/>
<path d="M5930 939 c-13 -5 -33 -17 -42 -26 -17 -15 -18 -15 -18 5 0 17 -6 22
-25 22 l-25 0 0 -155 0 -155 30 0 30 0 0 110 c0 104 1 112 25 135 29 30 85 34
106 9 9 -11 16 -56 19 -133 l5 -116 28 -3 29 -3 -4 130 c-3 125 -4 132 -29
157 -29 29 -89 40 -129 23z"/>
<path d="M6254 936 c-60 -27 -101 -111 -89 -180 16 -83 71 -126 162 -126 67 0
93 9 93 31 0 17 -5 19 -55 13 -66 -8 -110 8 -130 47 -30 57 -26 59 96 59 l112
0 -5 51 c-4 39 -12 58 -35 81 -36 36 -100 46 -149 24z"/>
<path d="M6602 925 c-36 -30 -42 -31 -42 -5 0 15 -7 20 -26 20 -24 0 -26 -3
-20 -31 3 -17 6 -87 6 -155 l0 -124 25 0 c25 0 25 1 25 93 0 112 18 157 68
172 24 7 32 15 32 32 0 31 -30 30 -68 -2z"/>
<path d="M6774 940 c-48 -19 -69 -86 -40 -125 7 -10 38 -30 67 -44 47 -23 54
-30 54 -56 0 -39 -37 -54 -95 -38 -35 9 -40 8 -46 -9 -8 -27 -2 -31 61 -36 71
-6 113 12 131 54 22 53 3 90 -64 122 -72 35 -84 54 -54 84 19 20 26 21 62 12
43 -12 50 -10 50 17 0 27 -78 39 -126 19z"/>
<path d="M5310 785 l0 -155 25 0 25 0 0 155 0 155 -25 0 -25 0 0 -155z"/>
</g>
</svg>
