<?xml version="1.0" encoding="utf-8"?>
<!-- Generator: Adobe Illustrator 23.0.1, SVG Export Plug-In . SVG Version: 6.00 Build 0)  -->
<svg version="1.1" xmlns="http://www.w3.org/2000/svg" xmlns:xlink="http://www.w3.org/1999/xlink" x="0px" y="0px"
	 viewBox="0 0 445.78 337.03" style="enable-background:new 0 0 445.78 337.03;" xml:space="preserve">
<style type="text/css">
	.st0{fill:#FFFFFF;}
</style>
<g id="background">
</g>
<g id="line_art">
	<g>
		<path class="st0" d="M212.87,324.85c-0.5,0-0.96-0.1-1.39-0.3c-2.71-1.25-2.38-5.88-2.3-6.74c-0.16-3.43,0.72-6.67,2.18-9.63
			c-1.8-0.16-2.96-0.63-3.06-0.67c-0.21-0.09-0.39-0.24-0.5-0.45c-4.19-7.68-20.07-21.01-21.42-22.13
			c-33.04-16.18-38.46-24.18-39.1-25.32c-2.86-3.64-4.77-7.86-5.74-12.59c-3.73-5.91-4.88-11.77-5.07-12.86
			c-7.93-15.29-17.68-56.23-18.69-60.53c-1.63-1.29-6.22-1.78-8.85-1.78c-0.46,0-0.86-0.31-0.97-0.76c-0.11-0.44,0.09-0.91,0.5-1.12
			c11.09-5.91,23.59-4.68,31.58-1.55c9.36,3.66,23.64,5.91,27.82,6.52c-1.04-10.51-14.69-38.61-14.84-38.9
			c-0.01-0.02-0.02-0.04-0.03-0.07c-3.91-9.78,2.36-29.86,4.55-36.25c-2.66,0.88-7.29,2.32-9.4,2.38c-4.96,0.14-7.72-0.58-8.44-2.21
			c-0.24-0.54-0.45-1.64,0.84-2.98c3.06-3.21,12.92-6.15,19.75-3.49c8.96,3.5,19.71,11.74,20.16,12.09
			c0.32,0.24,0.46,0.65,0.36,1.03c-0.49,1.97-0.82,4.51,0.4,5.46c1.73,1.34,6.09-0.52,7.48-1.28c0.34-0.19,0.76-0.16,1.08,0.08
			c2.28,1.71,15.84,7.93,22.87,11.05c4.45,0.1,11.18,3.34,12.13,3.8c3.47,0.84,6.07,0.07,7.51-0.6c-2.62-1.57-5.03-2.06-8.68-2.8
			c-2.39-0.49-5.37-1.1-9.2-2.19c-10.06-2.87-21.86-12.27-23.45-13.56c-1.82-0.55-3.04-1.63-3.62-3.22
			c-1.86-5.02,3.78-13.43,4.02-13.79c0.08-0.12,0.18-0.21,0.3-0.29c1.35-0.84,3.32-1.17,5.91-1c-2.41-2.96-6.42-1.95-6.62-1.89
			c-0.19,0.05-0.39,0.04-0.58-0.02c-6.77-2.26-23.07-18.43-24.34-19.69c-13.55-9.92-30.95-0.73-31.12-0.63
			c-0.25,0.14-0.55,0.16-0.83,0.06c-0.27-0.1-0.48-0.31-0.59-0.59l-1.55-4.13c-10.4,7.08-14,20.12-16.25,28.26l-0.36,1.29
			c-4.93,17.65-11.36,54.29-11.42,54.66c-5.01,22.67-27.74,23.32-27.97,23.33H11.44c-0.55,0-1-0.45-1-1s0.45-1,1-1h64.5
			c0.04,0,5.43-0.13,11.31-2.89c7.81-3.66,12.76-10,14.71-18.82c0.06-0.33,6.5-37.06,11.46-54.81l0.35-1.28
			c2.37-8.57,6.18-22.37,17.43-29.71l-1.99-5.31c-5.88-0.78-9.47-2.79-10.68-5.97c-1.57-4.13,1.43-8.9,3.02-11.01
			c-2.39-1.29-3.05-3.82-3.09-3.94c-0.12-0.5,0.15-1.01,0.64-1.19c5.01-1.77,5.93-4.49,6.07-5.08c-0.56-4.77,7.19-11.53,8.52-12.65
			c2.24-3.16,5.7-4.52,9.99-3.95c7.66,1.02,16.92,8.43,19.44,15.55c4.93,13.93-12.29,29.66-13.02,30.32
			c-0.18,0.17-0.42,0.26-0.67,0.26c-6.43,0-11.59,1.48-15.76,3.88l1.31,3.49c4.1-1.88,19.67-7.97,32.29,1.32
			c0.04,0.03,0.08,0.06,0.11,0.1c0.17,0.17,16.71,16.66,23.34,19.16c2.53-0.57,7.16-0.28,9.38,4.2c6.38,1.04,15.59,4.41,27.55,10.09
			c13.08,6.21,25.2,13.19,27.03,14.25h10.92l11.94-1.49c0.3-0.04,0.6,0.06,0.82,0.27l6.9,6.68c2.54,1.03,3.85,1.83,3.56,3.03
			c-0.13,0.52-0.36,1.42-4.64,1.24c0.77,0.94,1.26,1.98,0.93,3c-0.57,1.79-3.14,2-3.64,2.02c-0.14,0.01-0.29-0.02-0.42-0.07
			c-3.87-1.55-10.08-3.09-12.15-3.09c-0.01,0-0.02,0-0.03,0c0.66,1.41,3.32,4.78,5.79,7.49c0.27,0.29,0.33,0.72,0.17,1.08
			c-0.16,0.36-0.52,0.6-0.91,0.6c-3.01,0-9.02-5.1-10.85-6.72c-8.54,0.56-17.41-3.24-18.68-3.81c-28.3-3.75-45.09-14.27-45.26-14.38
			c-0.11-0.07-0.21-0.16-0.28-0.27c-4.82-6.89-1.46-15.74-0.37-18.18c-2.41-0.28-4.33-0.14-5.6,0.56
			c-1.54,2.35-4.89,8.51-3.68,11.79c0.38,1.02,1.19,1.69,2.49,2.04c0.14,0.04,0.26,0.1,0.37,0.19c0.13,0.1,12.71,10.4,22.89,13.31
			c3.76,1.07,6.69,1.67,9.05,2.15c4.35,0.89,7.23,1.47,10.75,3.99c0.25,0.18,0.41,0.47,0.42,0.79c0.01,0.31-0.13,0.61-0.37,0.81
			c-0.17,0.13-4.21,3.29-10.62,1.69c-0.07-0.02-0.14-0.04-0.2-0.08c-0.07-0.04-7.34-3.64-11.55-3.64c-0.14,0-0.28-0.03-0.41-0.09
			c-0.79-0.35-18.61-8.28-22.91-11c-1.69,0.83-6.47,2.87-9.11,0.82c-1.57-1.21-1.99-3.52-1.27-6.87
			c-2.26-1.69-11.55-8.45-19.16-11.43c-6.29-2.46-15.16,0.48-17.57,3.01c-0.42,0.44-0.49,0.72-0.46,0.79
			c0.01,0.01,0.6,1.2,6.56,1.02c2.22-0.06,8.51-2.15,10.75-2.94c0.37-0.13,0.77-0.04,1.05,0.24c0.27,0.28,0.36,0.69,0.23,1.05
			c-0.1,0.26-9.54,25.96-5.27,36.75c0.82,1.68,15.08,31.11,15.08,40.9c0,0.29-0.12,0.56-0.34,0.75c-0.22,0.19-0.5,0.28-0.79,0.24
			c-0.74-0.1-18.24-2.41-29.48-6.81c-6.74-2.64-16.85-3.86-26.38-0.17c2.35,0.3,5.1,0.93,6.45,2.28c0.13,0.13,0.22,0.3,0.27,0.48
			c0.1,0.45,10.56,45.05,18.66,60.51c0.05,0.1,0.09,0.2,0.1,0.31c0.01,0.05,0.56,3.49,2.43,7.75c-0.45-9.06,2.07-19.68,7.56-31.51
			c7.3-15.76,17.39-28.34,17.49-28.46c0.31-0.38,0.85-0.48,1.27-0.24c0.43,0.24,0.61,0.76,0.44,1.22
			c-1.79,4.76-0.56,35.97,0.06,47.59c0.02,0.33-0.13,0.65-0.4,0.85c-4.96,3.72-8.64,10.84-7.97,12.87c0.05,0.15,0.11,0.33,0.62,0.33
			c2.78,0,6.43-6.51,8.07-10.62c0.06-0.15,0.15-0.28,0.27-0.38c5.96-5.22,17.78-4.17,19.36-4.01c10.69-2.08,26.84,0.36,29.19,0.73
			c12.1-4.42,24.6-0.84,25.13-0.68c0.16,0.05,0.31,0.13,0.42,0.25c5.16,5.16,3.15,13.29,1.5,17.66c3.13,1.24,6.32,2.79,9.55,4.68
			c0.07,0.04,0.14,0.1,0.2,0.16c1.51,1.51,5.99,5.32,9.3,5.68c0.41-0.63,1.11-2,0.93-3.67c-0.19-1.75-1.28-3.42-3.26-4.98
			c-0.73-0.44-7.28-4.53-9.55-9.82c-0.1-0.24-0.11-0.52-0.01-0.76c0.01-0.03,1.18-3.09-0.02-5.45c-0.63-1.24-1.85-2.11-3.61-2.58
			c-0.49-0.13-0.8-0.6-0.74-1.1c0.06-0.5,0.49-0.87,0.99-0.87H439c0.55,0,1,0.45,1,1c0,0.55-0.45,1-1,1H251.62
			c0.49,0.48,0.89,1.03,1.21,1.65c1.31,2.6,0.58,5.58,0.23,6.66c2.25,4.74,8.57,8.54,8.63,8.58c0.04,0.02,0.07,0.04,0.1,0.07
			c2.46,1.92,3.83,4.08,4.07,6.41c0.32,3.16-1.59,5.43-1.67,5.53c-0.19,0.22-0.47,0.35-0.76,0.35c-4.59,0-10.28-5.39-11.11-6.2
			c-3.04-1.77-6.1-3.28-9.18-4.51c-0.3,0.67-0.52,1.09-0.57,1.18c-0.23,0.44-0.76,0.64-1.23,0.47c-5.29-1.93-36.39,2.98-57.26,6.7
			c-2.51,1.72-4.6,3.34-6.2,4.68c5.8-1.59,12.38-2.04,12.74-2.07c0.05,0,0.1,0,0.16,0c8.5,0.77,31.86,23.32,32.85,24.28
			c0.07,0.07,0.14,0.16,0.19,0.25c1.27,2.38,1.96,5.18,2.27,8.14c0.88-0.6,1.46-0.95,1.59-1.03c0.36-0.22,0.82-0.18,1.14,0.08
			c0.33,0.27,0.45,0.71,0.31,1.1c-0.85,2.47-1.84,4.65-2.95,6.55c-0.56,9.4-3.6,18.37-3.8,18.95c-0.05,0.13-0.12,0.26-0.22,0.36
			C218.13,322.79,215.12,324.85,212.87,324.85z M213.64,308.2c-1.62,2.95-2.64,6.19-2.46,9.59c0,0.05,0,0.11,0,0.16
			c-0.14,1.32-0.05,4.23,1.14,4.78c0.5,0.23,2.58,0.52,8.24-5.42c0.39-1.2,2.41-7.56,3.29-14.75c-1.7,2.02-3.62,3.52-5.75,4.48
			C216.51,307.76,214.99,308.09,213.64,308.2z M209.37,305.77c0.51,0.16,1.61,0.44,3.06,0.46c3.3-5.5,8.37-9.85,11.75-12.37
			c-0.2-3.09-0.81-6.01-2.06-8.41c-6.68-6.45-24.94-22.89-31.45-23.6c-1.01,0.08-11.3,0.9-16.79,3.64c-0.44,0.22-0.96,0.09-1.25-0.3
			c-0.29-0.39-0.25-0.93,0.08-1.29c0.19-0.2,2.58-2.66,6.77-5.84c-3.1,0.56-5.85,1.08-8.1,1.52c-2.14,0.33-4.14,0.48-6.03,0.48
			c-9.8,0-16.28-4.1-20.44-8.62c0.96,2.46,2.27,4.82,4.01,7.01c0.05,0.06,0.09,0.13,0.12,0.2c0.03,0.06,4.27,7.87,38.34,24.55
			c0.07,0.03,0.14,0.08,0.2,0.13C188.27,283.9,204.57,297.42,209.37,305.77z M224.26,296.36c-2.85,2.25-6.52,5.59-9.25,9.61
			c0.74-0.16,1.52-0.41,2.31-0.77c2.65-1.2,4.95-3.4,6.88-6.55C224.23,297.89,224.25,297.12,224.26,296.36z M143.43,246.25
			c0.25,0.38,0.5,0.76,0.77,1.14c6.11,8.58,15.14,12.02,26.83,10.22c0.67-0.13,5.44-1.05,12.23-2.26c3.61-2.44,8.06-5.02,13.21-7.23
			c11.11-4.76,27.29-8.35,45.52-1.77c1.46-3.9,3.24-11.01-0.85-15.35c-1.81-0.48-13.23-3.2-23.87,0.79
			c-0.16,0.06-0.34,0.08-0.52,0.05c-0.18-0.03-17.95-2.94-28.89-0.76c-0.1,0.02-0.21,0.02-0.31,0.01
			c-0.12-0.01-12.13-1.35-17.8,3.36c-0.81,1.96-5.04,11.65-9.83,11.65c-1.24,0-2.16-0.62-2.52-1.7c-1.15-3.44,3.59-11.04,8.24-14.77
			c-0.23-4.36-1.61-32.22-0.61-43.71c-3.42,4.67-9.8,14.01-14.83,24.89C145.42,221.15,141.17,234.48,143.43,246.25z M221.75,244.66
			c-8.08,0-16.25,1.76-24.48,5.29c-3.21,1.38-6.15,2.91-8.78,4.47c18.31-3.19,45.37-7.42,52.65-6c0.04-0.08,0.08-0.16,0.12-0.26
			C234.83,245.83,228.32,244.66,221.75,244.66z M263.43,124.85c0.25,0,0.48,0.09,0.67,0.26c1.64,1.47,4.08,3.45,6.21,4.84
			c-2.09-2.56-3.77-5.07-3.55-6.27c0.08-0.43,0.34-0.78,0.72-0.97c2.2-1.1,11.46,1.87,14.1,2.88c0.77-0.08,1.56-0.37,1.64-0.62
			c0-0.01,0.17-0.8-2.41-2.83c-0.35-0.28-0.48-0.75-0.31-1.16c0.17-0.41,0.59-0.66,1.03-0.62c1.33,0.14,2.82,0.23,3.98,0.23
			c-0.32-0.14-0.7-0.31-1.16-0.49c-0.12-0.05-0.23-0.12-0.32-0.21l-6.7-6.48l-11.52,1.44c-0.04,0.01-0.08,0.01-0.12,0.01h-11.25
			c-0.18,0-0.35-0.05-0.51-0.14c-11.48-6.73-38.88-21.38-53.37-24.15c-0.37,0.76-4.63,9.9-0.16,16.55
			c1.81,1.09,18.01,10.52,44.42,14c0.1,0.01,0.2,0.04,0.29,0.08c0.1,0.04,9.63,4.38,18.25,3.66
			C263.38,124.85,263.4,124.85,263.43,124.85z M120.74,33.43c0.4,0.76,1.2,1.83,2.69,2.21c0.34,0.08,0.61,0.34,0.71,0.68
			c0.1,0.33,0.02,0.7-0.21,0.96c-0.05,0.06-5.14,5.83-3.53,10.07c0.97,2.53,4.21,4.14,9.65,4.76c0.37,0.04,0.69,0.29,0.82,0.64
			l2.07,5.53c4.29-2.38,9.56-3.87,16.09-3.93c2.17-2.06,16.37-16.14,12.2-27.92c-2.26-6.39-10.92-13.31-17.82-14.23
			c-3.61-0.48-6.35,0.6-8.16,3.22c-0.05,0.07-0.11,0.14-0.18,0.2c-3.31,2.76-8.38,8.2-7.9,11.07c0.02,0.1,0.02,0.19,0.01,0.29
			C127.16,27.15,126.61,30.99,120.74,33.43z"/>
	</g>
</g>
</svg>
