<svg version="1.1" xmlns="http://www.w3.org/2000/svg" xmlns:xlink="http://www.w3.org/1999/xlink" x="0px" y="0px"
	 viewBox="0 0 445.78 363.53" style="enable-background:new 0 0 445.78 363.53;" xml:space="preserve">
<style type="text/css">
	.st0{fill:#FFFFFF;}
</style>
<g id="background">
</g>
<g id="line_art">
	<g>
		<path class="st0" d="M134.17,352.52H14.08c-0.55,0-1-0.45-1-1s0.45-1,1-1h119.88c0.42-0.19,0.93-0.42,1.51-0.68
			c5.88-2.63,21.51-9.61,24.09-16.53c0.34-0.9,0.43-1.76,0.29-2.59c-1.25,0.75-2.63,1.1-4.05,1.19c-2.55,2.55-5.27,5-7.91,7.38
			c-0.56,0.5-1.1,1-1.64,1.48c-6.16,5.58-18.26,10.21-24.95,4.4c-0.2-0.18-0.33-0.43-0.34-0.69c-0.02-0.27,0.07-0.53,0.25-0.73
			c1.69-1.89,3.43-3.25,5.28-4.7c0.82-0.65,1.68-1.31,2.54-2.04c0.97-0.82,2.21-2.24,3.4-3.62c1.91-2.2,3.72-4.27,5.22-5
			c3.03-1.46,6.85-0.51,10.55,0.4c2.36,0.58,4.65,1.15,6.72,1.16c0.33-0.34,0.67-0.68,0.99-1.03c0.41-0.44,0.88-0.84,1.34-1.24
			c1.05-0.91,2.03-1.77,2.3-2.84c0.4-1.65,0.02-2.12-0.63-2.9c-0.51-0.62-1.15-1.38-1.35-2.73c-0.31-2.09,0.04-3.86,0.39-5.57
			c0.42-2.08,0.81-4.04,0.14-6.71c-0.6-2.36-1.75-4.62-2.97-7.02c-0.98-1.94-2-3.95-2.7-6.01c-1.58-4.66-1.52-9.95-1.47-15.06
			c0.06-5.6,0.11-10.89-1.78-15.42c-0.53-1.27-1.41-2.38-2.55-3.35c1,4.01,1.24,8.87,1.47,13.38c0.16,3.22,0.31,6.25,0.74,8.39
			c0.56,2.82,1.24,5.73,1.91,8.55c1.57,6.7,3.19,13.62,3.44,20.23c0.23,6.16-1.88,11.12-5.51,12.94c-2.18,1.1-5.85,1.54-10.95-2.56
			c-0.26-0.21-0.4-0.53-0.37-0.86c1.08-12.79-2.81-24.54-6.33-33.34c-1.84-4.62-1.76-8.54-1.67-12.69c0.04-1.76,0.08-3.59-0.03-5.53
			c-0.12-2.21-1.32-4.68-2.47-7.08c-1.62-3.36-3.3-6.84-2.44-10.18c0.14-0.53,0.68-0.86,1.21-0.72c1.05,0.26,2.23,0.53,3.48,0.81
			c4.08,0.92,8.94,2.02,13.1,3.79c-0.07-0.08-0.15-0.16-0.23-0.24c-5.45-5.41-18.61-7.48-26.48-8.72l-1.47-0.23
			c-16.67-2.66-20.24-10.15-20.3-15.96c-0.1-10.12,5.65-17.45,12.08-24.69c1.84-2.08,3.78-4.14,5.66-6.13
			c0.15-0.16,0.3-0.31,0.44-0.47c-1.24-0.89-2.12-2.53-2.63-4.91c-0.36-1.66-0.23-3.9-0.09-6.27c0.12-2.13,0.25-4.32,0-5.99
			c-0.1-0.69-0.26-1.44-0.43-2.22c-0.61-2.89-1.31-6.17,0.21-8.86c0.13-0.24,0.36-0.41,0.62-0.48c0.26-0.07,0.54-0.03,0.78,0.12
			c4.47,2.76,7.27,4.07,12,5.62c2.9,0.95,5,1.75,5.58,3.43c0.55,1.59-0.36,3.39-2.49,6.56c-2.7,4.03-5.95,7.77-9.28,11.37
			c3-1.28,6.95-5.29,10.09-9.44c0.91-1.2,1.67-2.29,2.41-3.33c3.22-4.56,5.31-7.51,11.47-9.28c-3.47-0.31-6.83-0.57-10.28-0.57
			c-0.02,0-0.03,0-0.05,0c-3.83,0-6.39-0.87-7.82-2.66c-1.49-1.86-1.54-4.42-1.1-7.29c-1.83,2.62-3.7,4.86-4.93,5.26
			c-0.29,0.1-0.62,0.05-0.87-0.13c-0.26-0.18-0.42-0.46-0.43-0.77c-0.35-6.31,2.27-12.95,4.93-19.4c-1.33,1.12-2.26,3.16-3.38,5.82
			c-1.89,4.5-4.03,9.59-10.57,8.78c-3.38-0.42-5.52-1.64-6.37-3.63c-1.8-4.22,2.85-10.46,6.24-15.01c0.76-1.02,1.42-1.9,1.89-2.61
			c5.27-7.96,8.33-15.4,9.1-22.13c0.23-2.02,0.21-4.13,0.18-6.18c-0.03-2.72-0.06-5.52,0.5-8.18c0.49-2.31,1.61-4.4,2.69-6.42
			c0.85-1.58,1.66-3.09,2.1-4.6c-1.94,0.36-4.4,1.8-6.98,3.31c-5.67,3.32-12.72,7.44-17.07,0.46c-0.94-1.5-1.26-4.94-1.62-9.62
			c-0.14-1.8-0.27-3.5-0.44-4.35c-0.45-2.18-0.82-4.43-1.18-6.6c-0.45-2.74-0.92-5.57-1.54-8.19c-0.14-0.59-0.39-1.35-0.68-2.23
			c-1.21-3.63-2.86-8.6,0.13-11.27c1.01-0.9,2.47-1.23,4.12-1.29c-0.98-3.92,2.52-7.32,5.24-9.97l0.06-0.06
			c1.06-1.03,2.33-2.63,3.67-4.31c2.22-2.79,4.31-5.42,6.05-6.33c0.34-0.18,0.76-0.15,1.07,0.09c0.31,0.23,0.46,0.62,0.38,1
			c-0.13,0.61-0.2,1.25-0.28,1.94c-0.07,0.56-0.13,1.12-0.23,1.68c0.62-0.5,1.18-1.15,1.79-1.86c0.91-1.06,1.85-2.16,3.18-2.98
			c0.32-0.2,0.72-0.2,1.04,0c0.19,0.12,0.35,0.23,0.47,0.35c0.85-0.83,1.6-0.92,2.73-0.88c0.37,0.01,0.8,0.03,1.33-0.02
			c0.3-0.03,0.59,0.09,0.8,0.3c0.21,0.21,0.31,0.51,0.28,0.81c-0.75,6.71-9.94,19.29-16.12,22.08c-1.86,0.84-4.49,0.61-7.27,0.37
			c-0.2-0.02-0.4-0.04-0.6-0.05c0.46,0.38,1.32,0.48,2.23,0.58c1.38,0.15,2.95,0.33,3.94,1.61c1.36,1.76,1.19,4.27,1.04,6.49
			c-0.06,0.87-0.11,1.69-0.07,2.38c0.31,5.33,1.58,10.16,3.68,14c0.72,0.1,1.3-0.01,1.74-0.32c0.79-0.56,1.07-1.7,1.16-2.57
			c0.04-0.35,0.26-0.65,0.58-0.8c0.32-0.15,0.69-0.11,0.98,0.08c0.22,0.15,0.32,0.18,0.5,0.21c0.4,0.09,0.79,0.2,1.31,0.69
			c0.64-0.02,1.39-0.19,1.83-0.81c0.47-0.66,0.5-1.69,0.06-2.74c-0.18-0.44-0.03-0.95,0.37-1.22c3.42-2.26,5.73-5.82,7.98-9.27
			c2.18-3.36,4.44-6.83,7.69-8.95c3.46-2.26,8.11-1.92,12.61-1.59c5.82,0.43,10.85,0.8,13.03-3.85c0.98-2.08,0.39-3.6-0.29-5.36
			c-0.63-1.63-1.34-3.48-0.56-5.73c0.42-1.21,1.28-2.24,2.38-3.14c0.01-4.08,0.51-7.86,1.7-10.46c1.82-3.94,5.23-6.89,9.88-8.53
			c5.8-2.05,12.65-1.71,17.86,0.87c0.39,0.19,0.61,0.62,0.54,1.05c-0.02,0.21-0.01,1.25,0.02,1.47c0,0.03,0.01,0.07,0.01,0.1
			c3.26,0.01,7.94,4.68,9.48,6.66c3.86,4.97,5.21,10.78,4.26,18.27c-0.2,1.57-0.5,3.14-0.79,4.66c-1,5.22-1.94,10.15,1.12,14.83
			c3.62,5.53,8.33,6.99,14.3,7.48c0.41,0.03,0.75,0.31,0.87,0.7c0.12,0.39-0.01,0.81-0.32,1.07c-5.84,4.77-12.77,5.38-19.01,1.67
			c-5.32-3.16-8.87-8.69-9.75-14.6c-0.84,4.02-0.72,8.51,1.12,11.82c1.54,2.77,4.09,4.3,7.57,4.54c0.45,0.03,0.82,0.35,0.91,0.79
			c0.09,0.44-0.12,0.88-0.52,1.09c-2.27,1.18-4.6,1.34-6.92,0.47c-6.16-2.3-10.65-11.22-12.72-16.13c-1.64,1.34-3.66,2.37-5.63,3.37
			c-1.52,0.77-3.1,1.57-4.45,2.5c-2.94,2.01-5.14,4.61-7.48,7.36c-0.53,0.62-1.06,1.25-1.61,1.88c-2.49,2.86-5.24,5.5-7.89,8.06
			c-2.2,2.12-4.32,4.16-6.29,6.3c3.84-0.75,7.7-2.39,11.74-4.12c4.36-1.86,8.87-3.79,13.42-4.51c1.52-0.24,3.38-0.77,5.36-1.32
			c7.16-2.02,16.97-4.78,21.16,3.62c2.59,5.2-0.95,12-4.08,18c-1.56,3-3.04,5.83-3.66,8.21c-1.43,5.44-1.4,10.86-1.37,16.6
			c0.02,4.51,0.04,9.16-0.7,13.85c-1.37,8.62-3.9,14.24-7.54,16.75c0.55-0.09,1.1-0.18,1.66-0.28c4.61-0.8,9.38-1.62,10.95,2.4
			c0.12,0.31,0.08,0.65-0.1,0.92c-0.18,0.27-0.49,0.44-0.82,0.44c-0.62,0.01-1.15,0.18-1.77,0.39c-0.19,0.06-0.39,0.13-0.59,0.19
			c0.45,0.26,1.02,0.28,2.35,0.27c0,0,0.01,0,0.01,0c0.47,0,0.88,0.33,0.98,0.8c0.1,0.47-0.15,0.94-0.59,1.12
			c-0.19,0.08-0.42,0.23-0.69,0.4c-0.02,0.01-0.04,0.02-0.06,0.04c0.21,0.11,0.42,0.21,0.62,0.27c0.43,0.14,0.71,0.54,0.69,0.99
			c-0.03,0.75-0.35,1.84-1.76,2.76c-4.02,2.65-14.94,2.38-18.19,1.13c-3.96-1.53-8.11-8.27-11.69-14.47l-0.07-0.12
			c-0.22-0.38-0.16-0.86,0.14-1.19c2.14-2.27,4.07-1.91,5.65-0.95c-0.4-0.54-0.67-0.94-0.72-1.08c-1.32-3.42-0.33-4.94,0.93-6.87
			c0.62-0.96,1.33-2.04,1.94-3.63c1.49-3.87,1.06-8.08,0.62-12.53c-0.33-3.32-0.68-6.75-0.2-10.14c0.32-2.23,1.04-4.44,1.95-6.57
			c-2.35,3.27-4.18,6.7-4.33,11.15l-0.02,0.52c-0.2,6.12-0.28,8.41-4.2,13.81l-0.05,0.07c-2.98,4.1-5.13,7.07-4.37,12.24
			c0.47,3.21,1.52,6.23,2.54,9.16c1.16,3.33,2.34,6.72,2.64,10.38c0.46,0.43,0.81,0.95,1.04,1.57c0.18,0.5-0.06,1.06-0.55,1.27
			c-0.15,0.06-0.3,0.12-0.46,0.18c-0.13,2.07-0.58,4.23-1.51,6.52c-2.32,5.73-7.01,10.67-11.55,15.44
			c-2.11,2.22-4.11,4.32-5.82,6.45c-5.47,6.79-11.43,13.57-17.85,17.13c-0.1,0.06-0.21,0.11-0.32,0.17
			c0.23,2.92-1.54,4.86-3.12,6.58c-0.15,0.16-0.29,0.32-0.43,0.47c1.46-1.54,2.99-2.93,4.7-3.52c3.03-1.03,5.32,0.18,7.34,1.25
			c0.36,0.19,0.71,0.38,1.07,0.55c-0.94-4.3-1.04-11.09,2.28-14.33c0.26-0.25,0.63-0.35,0.98-0.25c0.35,0.1,0.61,0.38,0.7,0.73
			c1.6,6.63,2.05,11.95,1.34,15.82c-0.07,0.41-0.39,0.73-0.8,0.8c-0.51,0.09-1,0.13-1.47,0.12c1.43,3.06,3.58,3.5,7.69,4.35
			c0.5,0.1,1.02,0.21,1.57,0.33c4,0.86,8.02,2.14,11.92,3.39l1.29,0.41c1.84,0.58,3.92,0.82,6.13,1.08c2.59,0.3,5.28,0.61,7.6,1.53
			c2.48,0.99,4.08,3.09,4.6,5.96c1.37-0.95,2.85-1.36,4.42-0.62c3.05,1.43,2.33,6.1,1.69,10.22c-0.28,1.83-0.57,3.72-0.39,4.68
			c0.27,1.41,0.62,2.87,0.96,4.29c1.55,6.48,3.28,13.72-1.36,20.18c53.87,0.15,244.65-0.03,248.34-0.04c0.55,0,1,0.45,1,1
			c0,0.55-0.45,1-1,1c-3.73,0-201.8,0.19-250.01,0.03c-0.09,0.09-0.18,0.19-0.27,0.28c-2.56,2.55-4.56,3.51-6.3,3
			c-2.24-0.65-3.15-3.52-3.69-5.94c-0.21-0.94-0.46-1.96-0.71-3.01c-0.87-3.58-1.85-7.64-1.89-10.83c-0.01-0.55-0.43-1.58-0.74-2.33
			c-0.19-0.45-0.35-0.85-0.45-1.18c-0.08-0.27-0.05-0.57,0.1-0.81c0.15-0.24,0.39-0.41,0.67-0.46c4.09-0.76,6.29-3.05,8.34-6.26
			c0.15-0.23,0.39-0.39,0.66-0.44c0.27-0.05,0.55,0.01,0.77,0.17c6.12,4.46,3.62,11.1,1.42,16.95c-1.15,3.04-2.33,6.18-2.27,8.84
			c0.77,0.01,1.95,0.01,3.49,0.02c5.24-5.98,3.64-12.66,1.95-19.71c-0.34-1.44-0.7-2.93-0.98-4.38c-0.25-1.31,0.04-3.19,0.38-5.37
			c0.5-3.25,1.13-7.31-0.56-8.1c-1.05-0.49-2.22,0.15-3.38,1.24c0,0.24-0.01,0.48-0.03,0.73c-0.4,6.03-4.58,13.68-9.94,15.02
			c-2.52,0.63-19.74-3.41-24.48-7.23c-1.04-0.84-1.53-1.67-1.5-2.54l0-0.27c0-0.36,0.2-0.69,0.5-0.87c0.17-0.11,0.9-0.66,1.05-0.77
			c0.26-0.22,0.62-0.3,0.95-0.19l0.84,0.27c7.86,2.5,18.62,5.92,25.72,0.75c0.62-0.45,1.46-1.53,2.36-2.68
			c0.78-1,1.62-2.08,2.52-3.02c-0.11-2.06-0.82-4.64-3.52-5.71c-2.07-0.82-4.62-1.12-7.09-1.4c-2.21-0.25-4.49-0.52-6.51-1.16
			l-1.3-0.41c-4.03-1.28-7.83-2.5-11.74-3.34c-0.54-0.12-1.06-0.22-1.55-0.32c-4.76-0.98-7.79-1.6-9.61-6.74
			c-0.98-0.33-1.86-0.8-2.7-1.25c-1.9-1.01-3.54-1.88-5.76-1.13c-1.71,0.58-3.5,2.55-5.08,4.29c-0.96,1.05-1.86,2.04-2.76,2.78
			c-0.29,0.23-0.68,0.29-1.02,0.15c-0.34-0.14-0.58-0.46-0.61-0.83c-0.27-2.92,1.51-4.87,3.08-6.59c1.3-1.42,2.46-2.69,2.6-4.38
			c-1.05,0.39-2.22,0.74-3.42,1.09c-1.07,0.85-2.08,1.99-3.16,3.22c-2.54,2.87-5.42,6.14-9.95,5.58c-0.55-0.07-0.94-0.56-0.87-1.11
			c0.69-5.87,7.45-7.85,12.88-9.44c0.07-0.02,0.13-0.04,0.2-0.06c1.39-1.03,2.95-1.7,4.82-1.62c0.31-0.14,0.59-0.28,0.86-0.42
			c6.13-3.4,11.92-10,17.27-16.64c1.77-2.19,3.79-4.32,5.93-6.57c4.41-4.64,8.97-9.44,11.15-14.82c0.74-1.83,1.15-3.56,1.32-5.23
			c-3.39,0.58-7.41-0.01-11.05-0.55c-1.74-0.26-3.38-0.5-4.85-0.61c-0.72-0.05-1.44-0.11-2.15-0.17c-0.34,0.08-0.66,0.15-0.95,0.22
			c-0.99,0.23-1.84,0.43-2.48,0.56c-7.36,1.5-9.26,4.19-12.71,9.07c-0.72,1.01-1.53,2.16-2.45,3.38c-2.5,3.32-8.6,10.66-13.46,10.66
			c-0.15,0-0.31-0.01-0.46-0.02c-0.34,0.36-0.68,0.72-1.02,1.08c-1.87,1.98-3.79,4.03-5.62,6.09c-6.15,6.93-11.67,13.93-11.57,23.34
			c0.07,7.33,6.34,12.04,18.62,14l1.47,0.23c8.63,1.36,21.67,3.4,27.58,9.27c0.9,0.89,1.62,2.03,2.19,3.35
			c2.48,1.49,4.45,3.36,5.45,5.76c2.05,4.92,1.99,10.66,1.93,16.21c-0.05,4.94-0.11,10.05,1.36,14.39c0.65,1.93,1.64,3.87,2.59,5.75
			c1.21,2.39,2.46,4.86,3.12,7.43c0.79,3.11,0.31,5.49-0.11,7.59c-0.33,1.61-0.63,3.14-0.37,4.88c0.12,0.79,0.47,1.21,0.91,1.75
			c0.75,0.9,1.68,2.02,1.03,4.65c-0.4,1.62-1.64,2.76-2.77,3.75c0.35-0.2,0.68-0.44,1-0.72c0.24-0.21,0.56-0.29,0.86-0.23
			c0.31,0.06,0.57,0.27,0.7,0.56c0.79,1.69,0.84,3.48,0.16,5.33c-2.87,7.7-18.48,14.68-25.15,17.65c-0.66,0.3-1.23,0.55-1.69,0.76
			C134.46,352.48,134.32,352.52,134.17,352.52z M123.42,344.3c5.97,4.01,16.11-0.16,21.46-5.01c0.54-0.49,1.09-0.98,1.65-1.48
			c2.16-1.95,4.37-3.94,6.49-5.99c-1.79-0.21-3.6-0.66-5.32-1.08c-3.51-0.87-6.82-1.69-9.2-0.54c-1.13,0.55-2.96,2.65-4.58,4.51
			c-1.31,1.5-2.54,2.92-3.62,3.83c-0.89,0.75-1.76,1.43-2.59,2.09C126.21,341.81,124.78,342.92,123.42,344.3z M139.36,319.78
			c3.21,2.46,6.11,3.15,8.39,2c2.87-1.44,4.6-5.79,4.41-11.08c-0.24-6.41-1.84-13.24-3.39-19.85c-0.67-2.84-1.35-5.77-1.92-8.62
			c-0.45-2.28-0.61-5.38-0.77-8.68c-0.26-5.12-0.56-11.18-2.13-15.29c-4.36-2.43-10.42-3.8-15.31-4.9
			c-0.86-0.19-1.69-0.38-2.47-0.57c-0.17,2.39,1.11,5.05,2.46,7.84c1.24,2.57,2.52,5.23,2.67,7.84c0.11,2.02,0.07,3.89,0.03,5.69
			c-0.09,4.11-0.17,7.66,1.52,11.9C136.41,294.95,140.33,306.78,139.36,319.78z M174.77,268.59c0.41,1,0.88,2.12,0.89,3.06
			c0.03,2.96,0.99,6.9,1.84,10.38c0.26,1.07,0.51,2.09,0.72,3.05c0.75,3.35,1.66,4.27,2.29,4.46c0.53,0.15,1.47,0,3.11-1.37
			c-1.23-0.01-2.05-0.01-2.4-0.02c-0.49-0.01-0.9-0.38-0.97-0.87c-0.45-3.33,0.95-7.06,2.31-10.67c2.01-5.35,3.92-10.41,0.09-13.97
			C180.89,265.19,178.62,267.55,174.77,268.59z M149.15,256.04c0.08,0.17,0.28,0.43,0.7,0.77c4.37,3.53,20.84,7.33,22.75,6.85
			c3.5-0.88,7.11-6.02,8.16-11.21c-0.22,0.28-0.44,0.56-0.65,0.84c-1.03,1.32-1.91,2.46-2.76,3.07c-7.92,5.76-19.24,2.16-27.5-0.46
			l-0.34-0.11C149.38,255.87,149.26,255.96,149.15,256.04z M119.95,225.35c-3.52,1.19-6.72,2.77-7.67,5.59
			c2.88-0.18,4.94-2.51,7.1-4.95C119.58,225.78,119.76,225.56,119.95,225.35z M141.29,228.31c0.38,0.07,0.77,0.1,1.17,0.08
			c0.42-3.09,0.11-7.14-0.94-12.07c-1.49,3.2-1.21,8.32-0.36,11.53C141.21,228,141.25,228.16,141.29,228.31z M110.29,172.47
			c-0.56,1.9-0.07,4.23,0.41,6.5c0.17,0.82,0.34,1.59,0.45,2.34c0.28,1.87,0.15,4.17,0.02,6.4c-0.13,2.23-0.25,4.34,0.05,5.74
			c0.44,2.03,1.13,3.32,2.07,3.84c3.75-4.01,7.5-8.17,10.49-12.64c1.25-1.87,2.56-3.93,2.26-4.79c-0.28-0.81-2.37-1.55-4.31-2.18
			C117.24,176.21,114.32,174.89,110.29,172.47z M152.86,174.33c0.28,0.04,0.57,0.08,0.86,0.13c3.65,0.54,7.71,1.15,10.84,0.48
			c0-0.16-0.01-0.32-0.01-0.48C162.3,173.12,157.37,173.55,152.86,174.33z M129.84,172.51c4.27,0,8.34,0.38,12.66,0.78
			c1.24,0.12,2.5,0.23,3.78,0.34c5.47-1.27,13.5-2.97,18.06-1.43c-0.43-2.88-1.39-5.65-2.38-8.49c-1.05-3.01-2.14-6.13-2.63-9.52
			c-0.88-5.98,1.72-9.56,4.73-13.71l0.05-0.07c3.56-4.91,3.62-6.71,3.82-12.7l0.02-0.52c0.22-6.7,3.9-11.34,7.45-15.82
			c2.06-2.59,4.18-5.28,5.72-8.4c0.24-0.49,0.83-0.7,1.32-0.47c0.49,0.23,0.71,0.81,0.49,1.31c-0.81,1.82-1.89,3.74-3.03,5.77
			c-2.31,4.11-4.93,8.77-5.58,13.37c-0.44,3.15-0.11,6.46,0.21,9.66c0.45,4.49,0.92,9.13-0.74,13.45c-0.69,1.79-1.49,3.02-2.13,4
			c-1.15,1.77-1.69,2.59-0.76,5.01c0.32,0.53,2.54,3.35,3.99,5.1c1.54-0.12,2.47-1.11,3.55-2.25c1.26-1.33,2.69-2.84,5.22-2.88
			c0.27,0,0.55,0.11,0.74,0.32c0.19,0.21,0.29,0.48,0.26,0.77c-0.04,0.47-0.11,0.94-0.22,1.4c1.87-2.77,3.27-7.04,4.19-12.79
			c0.72-4.52,0.7-9.1,0.68-13.52c-0.03-5.61-0.05-11.42,1.44-17.12c0.68-2.59,2.21-5.52,3.82-8.62c2.91-5.58,6.2-11.9,4.06-16.18
			c-3.45-6.92-11.62-4.62-18.83-2.59c-2.03,0.57-3.95,1.11-5.59,1.37c-4.31,0.68-8.7,2.56-12.95,4.37c-4.69,2-9.54,4.07-14.35,4.58
			c-0.07,0.01-0.14,0.01-0.2,0c-0.33,0.4-0.66,0.8-0.98,1.22c-6.55,8.35-10.06,18.55-12.83,27.46c-1.14,3.65-1.65,7.81-2.2,12.22
			c-0.75,6.02-1.52,12.25-4.03,17.18c-0.29,0.58-1.38,2.53-2.79,4.83c-0.05,0.24-0.11,0.47-0.16,0.71
			c-0.91,4.07-1.78,7.91-0.16,9.93c1.03,1.28,3.08,1.91,6.26,1.91C129.8,172.51,129.82,172.51,129.84,172.51z M166.09,158.75
			c2.39,4.13,6.88,11.7,10.35,13.03c2.89,1.11,12.99,1.3,16.37-0.93c0.31-0.21,0.51-0.4,0.64-0.57c-0.32-0.17-0.62-0.35-0.89-0.51
			c-0.27-0.16-0.55-0.33-0.7-0.39c-0.39-0.16-0.64-0.55-0.62-0.97c0.01-0.27,0.13-0.52,0.32-0.69c-0.62-0.3-1.09-0.8-1.73-1.58
			l-0.27-0.33c-0.25-0.3-0.3-0.73-0.13-1.08c0.17-0.35,0.54-0.57,0.93-0.56c0.7,0.03,1.29-0.17,1.97-0.39
			c0.21-0.07,0.43-0.14,0.67-0.21c-1.39-1.09-4.08-0.74-7.96-0.07c-3.7,0.64-7.53,1.3-10.14-0.33c-0.13-0.08-0.5-0.48-0.99-1.06
			c-1.31-0.26-2.41-1.22-3.48-2.16C168.58,158.37,167.54,157.57,166.09,158.75z M122.11,148.57c-0.13,0.3-0.25,0.61-0.38,0.92
			c-2.39,5.79-4.86,11.76-5.12,17.33c1.44-1.61,3.54-4.68,5.35-7.58c0.83-3.74,1.54-7.53,0.51-10.66
			C122.35,148.57,122.23,148.57,122.11,148.57z M122.8,93.31c0.17,0,0.33,0.01,0.49,0.02c0.27,0.03,0.53,0.16,0.69,0.38
			c0.17,0.22,0.24,0.49,0.2,0.77c-0.34,2.25-1.49,4.39-2.59,6.46c-1.02,1.89-2.07,3.85-2.5,5.89c-0.52,2.44-0.49,5.02-0.46,7.74
			c0.02,2.1,0.05,4.28-0.2,6.43c-0.8,7.04-3.97,14.79-9.42,23.01c-0.5,0.76-1.17,1.66-1.95,2.7c-2.75,3.69-7.36,9.86-6,13.03
			c0.55,1.29,2.16,2.1,4.77,2.43c5.03,0.62,6.63-3.17,8.48-7.57c1.39-3.3,2.93-6.97,6.37-7.83c0.95-2.33,1.82-4.56,2.46-6.68
			c1.65-5.46,2.11-10.99,2.55-16.34c0.36-4.41,0.74-8.97,1.78-13.53c1.63-7.11,6.02-11.64,10.27-16.02c2.3-2.37,4.69-4.83,6.65-7.7
			c0.35-0.51,0.67-1.03,0.96-1.56c-0.19-1.06-0.4-2.13-0.61-3.19c-1.4-7.14-2.85-14.52,0.7-18.58c1.95-2.24,5.12-3.2,9.68-2.95
			c0.37,0.02,0.7,0.25,0.85,0.58c0.15,0.34,0.11,0.73-0.12,1.03c-2.95,3.78-3.96,8.2-5.02,12.87c-0.81,3.54-1.64,7.17-3.38,10.56
			c0.43,2.47,0.76,4.89,0.76,7.09c1.76-1.84,3.59-3.6,5.39-5.33c2.62-2.52,5.34-5.13,7.77-7.93c0.54-0.62,1.07-1.24,1.59-1.86
			c2.42-2.86,4.71-5.55,7.87-7.72c1.46-1,3.09-1.83,4.67-2.63c2.39-1.22,4.65-2.36,6.19-3.99c0.08-0.08,0.17-0.15,0.27-0.2
			c-2.22,0.84-4.48,1.26-6.59,1.14c-4.14-0.24-7.36-2.43-9.31-6.35c-1.78-3.57-3.25-10.54-3.58-17.24
			c-0.24,0.33-0.43,0.67-0.55,1.02c-0.54,1.56-0.04,2.86,0.54,4.36c0.73,1.91,1.57,4.08,0.23,6.93c-2.77,5.89-8.98,5.44-14.99,4.99
			c-4.16-0.31-8.47-0.62-11.37,1.27c-2.89,1.89-4.94,5.03-7.11,8.36c-2.22,3.41-4.51,6.93-7.91,9.4c0.39,1.44,0.2,2.85-0.54,3.89
			c-0.83,1.16-2.23,1.75-3.94,1.64c-0.26-0.02-0.5-0.13-0.68-0.32c-0.24-0.26-0.34-0.34-0.45-0.37c-0.33,1.2-0.93,2.13-1.76,2.72
			c-0.7,0.49-1.92,0.99-3.78,0.55c-0.27-0.06-0.5-0.24-0.64-0.48c-2.38-4.17-3.81-9.45-4.16-15.27c-0.05-0.81,0.01-1.7,0.07-2.63
			c0.13-1.96,0.26-3.98-0.63-5.14c-0.48-0.61-1.5-0.73-2.58-0.85c-1.23-0.14-2.63-0.29-3.57-1.29c-0.46-0.49-0.83-0.97-1.14-1.44
			c-1.58-0.03-2.94,0.14-3.67,0.79c-2.01,1.79-0.59,6.04,0.44,9.15c0.31,0.92,0.57,1.72,0.73,2.4c0.64,2.69,1.11,5.56,1.57,8.33
			c0.36,2.15,0.72,4.38,1.17,6.52c0.2,0.98,0.33,2.66,0.48,4.6c0.23,2.99,0.58,7.52,1.33,8.72c3.09,4.96,7.7,2.77,14.36-1.13
			C117.16,95.09,120.21,93.31,122.8,93.31z M176.62,161.82c1.02,0.39,2.31,0.45,3.71,0.34c-0.19-0.36-0.14-0.8,0.12-1.11
			c0.92-1.08,1.61-2.42,1.96-3.76c-0.99,0.37-1.73,1.15-2.55,2.02C178.98,160.25,178,161.28,176.62,161.82z M122.92,146.6
			c0.13,0.01,0.26,0.02,0.4,0.04c0.36,0.05,0.66,0.28,0.8,0.61c0.88,2.14,0.99,4.53,0.75,6.94c2.34-4.61,3.09-10.65,3.81-16.49
			c0.53-4.3,1.09-8.74,2.28-12.57c2.83-9.08,6.41-19.48,13.17-28.1c0.62-0.79,1.26-1.56,1.93-2.32c0.32-1.94,0.16-4.29-0.19-6.8
			c-2.02,2.89-4.38,5.32-6.67,7.68c-4.24,4.37-8.25,8.5-9.75,15.07c-1.01,4.42-1.38,8.9-1.74,13.25
			c-0.45,5.45-0.91,11.08-2.63,16.75C124.49,142.57,123.74,144.55,122.92,146.6z M153.17,62.18c-2.9,0.09-4.94,0.84-6.21,2.3
			c-2.9,3.33-1.55,10.22-0.24,16.89c0.03,0.15,0.06,0.29,0.09,0.44c0.91-2.4,1.49-4.93,2.08-7.55
			C149.83,70.16,150.79,65.94,153.17,62.18z M182.44,62.59c0.06,0,0.13,0.01,0.19,0.02c0.34,0.07,0.61,0.3,0.74,0.62
			c1.28,3.25,5.92,14.02,12.11,16.34c0.33,0.12,0.66,0.22,0.98,0.29c-1.88-0.94-3.4-2.4-4.48-4.34c-3.13-5.63-1.91-14.17,0.83-19.36
			c0.23-0.44,0.75-0.64,1.21-0.48c0.47,0.16,0.74,0.64,0.65,1.13c-1.34,7.1,2.32,15.01,8.69,18.8c4.76,2.83,9.98,2.79,14.64-0.02
			c-4.8-0.71-9.54-2.53-13.18-8.08c-3.5-5.35-2.44-10.92-1.41-16.3c0.28-1.49,0.58-3.03,0.77-4.54c0.89-7.03-0.3-12.2-3.86-16.79
			c-2.53-3.26-6.99-6.42-8.23-5.83c-0.1,0.05-0.94,0.56-0.09,4.35c0.38,1.72,1.31,3.28,2.29,4.93c1.35,2.29,2.75,4.65,2.79,7.6
			c0.05,4.05-2.33,9.88-4.71,13.55c-2.35,3.62-6.17,6.57-10.19,8.14C182.26,62.6,182.35,62.59,182.44,62.59z M164.42,38.48
			c0.13,6.83,1.6,14.43,3.44,18.12c1.64,3.29,4.21,5.05,7.64,5.25c5.25,0.3,11.92-3.41,15.19-8.45c2.16-3.33,4.44-8.82,4.39-12.44
			c-0.03-2.42-1.24-4.46-2.51-6.61c-1.02-1.72-2.07-3.49-2.52-5.52c-0.24-1.06-0.85-3.82,0.06-5.51c-4.04,1.13-7.97,4.01-11.78,6.81
			c-2.41,1.77-4.69,3.44-6.98,4.69c-0.6,0.32-1.32,0.67-2.09,1.03C167.74,36.57,165.9,37.45,164.42,38.48z M98.8,55.65
			c0.73,0.04,1.48,0.11,2.23,0.17c2.4,0.21,4.88,0.43,6.27-0.2c5.28-2.38,13.26-13.02,14.75-19.34c-0.1,0-0.19-0.01-0.28-0.01
			c-0.99-0.03-1.14-0.04-2.03,1.27c-0.17,0.25-0.46,0.41-0.76,0.43c-0.31,0.02-0.61-0.1-0.81-0.33c-0.16-0.19-0.28-0.36-0.35-0.52
			c-0.69,0.58-1.29,1.29-1.88,1.97c-1.25,1.46-2.55,2.97-4.69,3.38c-0.37,0.07-0.75-0.07-0.98-0.37c-0.23-0.3-0.27-0.7-0.11-1.04
			c0.37-0.79,0.53-1.77,0.66-2.82c-1.13,1.18-2.41,2.79-3.6,4.28c-1.38,1.74-2.69,3.38-3.84,4.5l-0.06,0.06
			C99.96,50.33,97.71,52.86,98.8,55.65z M181.93,19.17c-2.48,0-4.98,0.4-7.26,1.2c-2.88,1.01-6.72,3.14-8.73,7.48
			c-0.94,2.04-1.4,4.97-1.51,8.23c1.29-0.77,2.7-1.44,3.97-2.04c0.74-0.35,1.44-0.69,1.99-0.98c2.17-1.18,4.4-2.81,6.75-4.54
			c4.21-3.09,8.54-6.28,13.24-7.33c0-0.1,0-0.2,0-0.31C187.88,19.75,184.92,19.17,181.93,19.17z"/>
	</g>
</g>
</svg>
